<?xml version="1.0" encoding="utf-8"?>
<!-- Generator: Adobe Illustrator 24.0.2, SVG Export Plug-In . SVG Version: 6.00 Build 0)  -->
<svg version="1.1" id="Layer_1" xmlns="http://www.w3.org/2000/svg" xmlns:xlink="http://www.w3.org/1999/xlink" x="0px" y="0px"
	 viewBox="0 0 480 480" style="enable-background:new 0 0 480 480;" xml:space="preserve">
<style type="text/css">
	.st0{fill:#CCCCCC;}
</style>
<path class="st0" d="M469.7,216.4l-15.9-2l9.8-12.6c3.6-4.7,3.2-11.4-1-15.6l-16.8-16.8c-4.2-4.2-10.9-4.6-15.6-1l-12.6,9.9l-2-15.9
	c-0.7-5.9-5.8-10.3-11.7-10.3h-23.7c-3.8,0-7.3,1.9-9.4,5l-10.5-17.5c2.6-4.1,2.3-9.4-0.6-13.3l-9.8-12.6l15.9-2
	c5.9-0.7,10.3-5.8,10.3-11.7V76.1c0-6-4.4-11-10.3-11.7l-15.9-2l9.8-12.6c3.6-4.7,3.2-11.4-1-15.6l-16.8-16.8
	c-4.2-4.2-10.9-4.6-15.6-1l-12.6,9.9l-2-15.9C310.9,4.4,305.8,0,299.9,0h-23.7c-6,0-11,4.4-11.7,10.3l-2,15.9l-12.6-9.8
	c-4.7-3.6-11.4-3.2-15.6,1l-16.8,16.8c-4.2,4.2-4.6,10.9-1,15.6l9.9,12.6l-15.9,2c-5.9,0.7-10.3,5.8-10.3,11.7v6.5l-71.8,28.7
	l-13.4-13.4c-5.7-5.7-14.8-6.3-21.1-1.3l-34,26.4c-1.9-0.8-3.7-1.6-5.5-2.3l-5.3-42.6C47.8,70.1,41,64,33,64H16l0,0l0,0v352l0,0l0,0
	h17c8.1,0,14.9-6,15.8-14l5.3-42.7c1.8-0.7,3.6-1.5,5.5-2.3l33.9,26.4c6.4,5,15.5,4.4,21.3-1.3l16.5-16.5L200,395v8.9
	c0,6,4.5,11,10.4,11.8l15.8,1.9l-9.8,12.6c-3.7,4.7-3.3,11.4,0.9,15.6l16.8,16.8c4.2,4.2,10.9,4.6,15.6,1l12.6-9.8l2,15.9
	c0.8,5.9,5.8,10.4,11.8,10.4h23.7c6,0,11-4.5,11.8-10.4l1.9-15.8l12.6,9.8c4.7,3.7,11.4,3.3,15.6-0.9l16.8-16.8
	c4.2-4.2,4.7-10.9,1-15.6l-9.8-12.6l15.9-2c5.9-0.8,10.4-5.8,10.4-11.8v-23.7c0-6-4.5-11-10.4-11.8l-15.8-2l9.8-12.6
	c3-3.9,3.3-9.2,0.6-13.3l10.5-17.5c2.1,3.1,5.7,5,9.4,5h23.7c6,0,11-4.4,11.7-10.3l2-15.9l12.6,9.8c4.7,3.7,11.4,3.2,15.6-1
	l16.8-16.8c4.2-4.2,4.6-10.9,1-15.6l-9.9-12.6l15.9-2c5.9-0.7,10.3-5.8,10.3-11.7v-23.7C480,222.2,475.6,217.2,469.7,216.4z
	 M331.2,176.4l-14.5-24.2l9.6,7.4c4.7,3.7,11.4,3.2,15.6-1l7-7l14.5,24.2l-9.6-7.4c-4.7-3.6-11.4-3.2-15.6,1L331.2,176.4z M216,79.8
	l19-2.4c3-0.4,5.6-2.5,6.6-5.4c0.7-1.9,1.5-3.9,2.4-5.7c1.3-2.7,1-6-0.9-8.4l-11.8-15.1l11.6-11.6L258,43c2.4,1.9,5.7,2.2,8.4,0.9
	c1.9-0.9,3.8-1.7,5.7-2.4c2.9-1,5-3.5,5.4-6.6l2.4-18.9h16.4l2.4,19c0.4,3,2.5,5.6,5.4,6.6c1.9,0.7,3.9,1.5,5.7,2.4
	c2.7,1.3,6,1,8.4-0.9l15.1-11.7l11.6,11.6L333,58c-1.9,2.4-2.2,5.7-0.9,8.4c0.9,1.9,1.7,3.8,2.4,5.7c1,2.9,3.5,5,6.6,5.4l19,2.4
	v16.4l-19,2.4c-3,0.4-5.6,2.5-6.6,5.4c-0.7,1.9-1.5,3.9-2.4,5.7c-1.3,2.7-1,6,0.9,8.4l11.7,15.1l-11.6,11.6L318,133
	c-2.4-1.9-5.7-2.3-8.4-0.9c-1.9,0.9-3.8,1.7-5.7,2.4c-2.9,1-5,3.5-5.4,6.6l-2.4,18.9h-16.4l-2.4-19c-0.4-3-2.5-5.6-5.4-6.6
	c-1.9-0.7-3.9-1.5-5.7-2.4c-2.7-1.3-6-1-8.4,0.9l-15.1,11.7l-11.6-11.6L243,118c1.9-2.4,2.2-5.7,0.9-8.4c-0.9-1.9-1.7-3.8-2.4-5.7
	c-1-2.9-3.5-5-6.6-5.4L216,96.2V79.8z M16,173.2c30.1,5.8,51.9,32.2,51.9,62.8S46.1,293,16,298.8V173.2z M103.4,370.8l-37.8-29.4
	c-2.4-1.9-5.6-2.2-8.4-0.9c-4.2,2.1-8.5,3.9-13,5.4c-2.9,1-5,3.5-5.4,6.6L33,400H16v-84.9c39.2-5.9,68.2-39.5,68.2-79.1
	s-29-73.3-68.2-79.1V80h16.9l5.9,47.5c0.4,3.1,2.5,5.6,5.4,6.6c4.4,1.5,8.8,3.3,13,5.4c2.7,1.3,6,1,8.4-0.9l37.8-29.4l35.3,35.4
	l-29.4,37.8c-1.9,2.4-2.2,5.6-0.9,8.4c2.1,4.2,3.9,8.5,5.4,13c1,2.9,3.5,5,6.6,5.4L168,215v49.9l-47.5,5.9c-3.1,0.4-5.6,2.5-6.6,5.4
	c-1.5,4.4-3.3,8.8-5.4,13c-1.3,2.7-1,6,0.9,8.4l29.4,37.8L103.4,370.8z M151.4,325.7l-26.4-34c0.8-1.9,1.6-3.7,2.3-5.5l42.6-5.3
	c8-1,14.1-7.8,14.1-15.9V215c0-8.1-6-14.9-14-15.8l-42.7-5.3c-0.7-1.8-1.5-3.6-2.3-5.5l26.4-33.9c5-6.4,4.4-15.5-1.3-21.3l-9.5-9.5
	L200,99.8v0c0,6,4.4,11,10.3,11.7l15.9,2l-9.8,12.6c-3.6,4.7-3.2,11.4,1,15.6l16.8,16.8c4.2,4.2,10.9,4.6,15.6,1l12.6-9.8l2,15.9
	c0.7,5.9,5.8,10.3,11.7,10.3h23.7c3.8,0,7.3-1.9,9.4-5l10.5,17.5c-2.6,4.1-2.3,9.4,0.6,13.3l9.8,12.6l-15.9,2
	c-5.9,0.7-10.3,5.8-10.3,11.7v23.7c0,6,4.4,11,10.3,11.7l15.9,2l-9.8,12.6c-2.9,3.9-3.2,9.2-0.6,13.3L309.3,309
	c-2.2-3.1-5.7-4.9-9.5-5h-23.7c-6,0-11,4.5-11.8,10.4l-2,15.8l-12.6-9.8c-4.7-3.7-11.4-3.3-15.6,0.9l-16.8,16.8
	c-4.2,4.2-4.7,10.9-1,15.6l9.8,12.6l-15.9,2c-5,0.7-9,4.4-9.9,9.4l-56.9-24.4l6.6-6.6C155.8,341.1,156.4,332,151.4,325.7
	L151.4,325.7z M341.8,321.4c-4.2-4.2-10.9-4.6-15.6-1l-9.5,7.4l14.5-24.2l7,7c4.2,4.2,10.9,4.6,15.6,1l9.6-7.4l-14.6,24.2
	L341.8,321.4z M360,383.8v16.4l-19,2.3c-3.1,0.4-5.7,2.6-6.7,5.6c-0.6,1.9-1.4,3.8-2.3,5.5c-1.3,2.7-1,6,0.9,8.4l11.7,15.1
	l-11.6,11.6L318,437c-2.4-1.9-5.6-2.2-8.4-0.9c-1.8,0.9-3.6,1.7-5.5,2.3c-3,0.9-5.2,3.5-5.6,6.7l-2.3,19h-16.4l-2.3-19
	c-0.4-3.1-2.6-5.7-5.6-6.7c-1.9-0.6-3.8-1.4-5.5-2.3c-2.7-1.3-6-1-8.4,0.9l-15.1,11.7l-11.6-11.6L243,422c1.9-2.4,2.2-5.6,0.9-8.4
	c-0.9-1.8-1.7-3.6-2.3-5.5c-0.9-3-3.5-5.2-6.7-5.6l-19-2.3v-16.4l19-2.3c3.1-0.4,5.7-2.6,6.7-5.6c0.6-1.9,1.4-3.8,2.3-5.5
	c1.3-2.7,1-6-0.9-8.4l-11.7-15.1l11.6-11.6L258,347c2.4,1.9,5.6,2.2,8.4,0.9c1.8-0.9,3.6-1.7,5.5-2.3c3-0.9,5.2-3.5,5.6-6.7l2.3-19
	h16.4l2.3,19c0.4,3.1,2.6,5.8,5.6,6.7c1.9,0.6,3.8,1.4,5.5,2.3c2.7,1.3,6,1,8.4-0.9l15.1-11.7l11.6,11.6L333,362
	c-1.9,2.4-2.2,5.6-0.9,8.4c0.9,1.8,1.7,3.6,2.3,5.5c0.9,3,3.5,5.2,6.7,5.6L360,383.8z M464,248.2l-19,2.4c-3,0.4-5.6,2.5-6.6,5.4
	c-0.7,1.9-1.5,3.9-2.4,5.7c-1.3,2.7-1,6,0.9,8.4l11.7,15.1l-11.6,11.6L422,285c-2.4-1.9-5.7-2.2-8.4-0.9c-1.9,0.9-3.8,1.7-5.7,2.4
	c-2.9,1-5,3.5-5.4,6.6l-2.4,18.9h-16.4l-2.4-19c-0.4-3-2.5-5.6-5.4-6.6c-1.9-0.7-3.9-1.5-5.7-2.4c-2.7-1.3-6-1-8.4,0.9l-15.1,11.7
	l-11.6-11.6L347,270c1.9-2.4,2.2-5.7,0.9-8.4c-0.9-1.9-1.7-3.8-2.4-5.7c-1-2.9-3.5-5-6.6-5.4l-18.9-2.4v-16.4l19-2.4
	c3-0.4,5.6-2.5,6.6-5.4c0.7-1.9,1.5-3.9,2.4-5.7c1.3-2.7,1-6-0.9-8.4l-11.7-15.1l11.6-11.6L362,195c2.4,1.9,5.7,2.2,8.4,0.9
	c1.8-0.9,3.8-1.7,5.7-2.4c2.9-1,5-3.5,5.4-6.6l2.4-19h16.4l2.4,19c0.4,3,2.5,5.6,5.4,6.6c1.9,0.7,3.9,1.5,5.7,2.4
	c2.7,1.3,6,1,8.4-0.9l15.1-11.7l11.6,11.6L437,209.9c-1.9,2.4-2.3,5.7-1,8.5c0.9,1.9,1.7,3.8,2.4,5.7c1,2.9,3.5,5,6.6,5.4l19,2.4
	L464,248.2z"/>
<path class="st0" d="M392,200c-22.1,0-40,17.9-40,40s17.9,40,40,40s40-17.9,40-40C432,217.9,414.1,200,392,200z M392,264
	c-13.3,0-24-10.7-24-24s10.7-24,24-24s24,10.7,24,24S405.3,264,392,264z"/>
<path class="st0" d="M288,128c22.1,0,40-17.9,40-40s-17.9-40-40-40s-40,17.9-40,40C248,110.1,265.9,128,288,128z M288,64
	c13.3,0,24,10.7,24,24s-10.7,24-24,24s-24-10.7-24-24S274.7,64,288,64z"/>
<path class="st0" d="M288,352c-16,0-30.4,9.6-36.7,24.2c-6.3,14.7-3.3,31.7,7.7,43.3l0.1,0c12.6,13.2,32.5,16.2,48.4,7.4
	c15.9-8.9,23.9-27.4,19.3-45C322.2,364.3,306.2,352,288,352z M288,416c-6.5,0.1-12.8-2.6-17.3-7.4l-5.8,5.5l5.8-5.5
	c-4.3-4.4-6.7-10.4-6.7-16.5c0-13.3,10.7-24,24-24s24,10.7,24,24S301.3,416,288,416z"/>
</svg>
