<?xml version="1.0" encoding="utf-8"?>
<!-- Generator: Adobe Illustrator 24.0.2, SVG Export Plug-In . SVG Version: 6.00 Build 0)  -->
<svg version="1.1" id="Layer_1" xmlns="http://www.w3.org/2000/svg" xmlns:xlink="http://www.w3.org/1999/xlink" x="0px" y="0px"
	 viewBox="0 0 480 480" style="enable-background:new 0 0 480 480;" xml:space="preserve">
<style type="text/css">
	.st0{fill:#CCCCCC;}
</style>
<g>
	<path class="st0" d="M339.2,418.9H317l-23.6-43.7H186l-24.3,43.7h-22.9c-14.3,0-25,11.4-25,25c0,14.3,11.5,25,25,25h200.4
		c14.3,0,25-11.4,25-25S353.5,418.9,339.2,418.9z"/>
	<path class="st0" d="M435.1,11.7H42.9C25,11.7,10,26.7,10,44.6V328c0,17.9,15,32.9,32.9,32.9h392.2c17.9,0,32.9-15,32.9-32.9V44.6
		C468,26.7,453.7,11.7,435.1,11.7z M266.2,335.2h-54.4c-3.6,0-7.2-3.6-7.2-7.2c0-4.3,3.6-7.2,7.2-7.2h54.4c3.6,0,7.2,2.9,7.2,7.2
		C273.4,332.3,269.8,335.2,266.2,335.2z M453.7,290.8H24.3V44.6c0-10,8.6-18.6,18.6-18.6h392.2c10,0,18.6,8.6,18.6,18.6V290.8z"/>
	<path class="st0" d="M165.3,86.1v71.6h71.6C234,119.8,203.2,89.7,165.3,86.1z"/>
	<path class="st0" d="M151,164.9V86.1c-40.1,3.6-72.3,37.2-72.3,78.7c0,43.7,35.8,79.4,79.4,79.4c41.5,0,75.1-31.5,78.7-72.3h-78.7
		C154.6,172,151,169.2,151,164.9z"/>
	<path class="st0" d="M391.4,50.4h-81.6c-4.3,0-7.2,2.9-7.2,7.2v35.8h-22.9c-7.9,0-15,6.4-15,15c0,23.6,0,80.9,0,106.6
		c0,7.9,6.4,15,15,15h22.9v36.5c0,3.6,2.9,7.2,7.2,7.2h81.6c4.3,0,7.2-3.6,7.2-7.2v-87.3c0-3.6-2.9-7.2-7.2-7.2h-81.6
		c-4.3,0-7.2,3.6-7.2,7.2v36.5h-22.9c0,0-0.7,0-0.7-0.7c0-25.8,0-82.3,0-106.6c0,0,0-0.7,0.7-0.7h22.9v36.5c0,4.3,2.9,7.2,7.2,7.2
		h81.6c4.3,0,7.2-2.9,7.2-7.2V57.5C398.6,53.9,395.7,50.4,391.4,50.4z M337,200.6h28.6c3.6,0,7.2,2.9,7.2,7.2c0,3.6-3.6,7.2-7.2,7.2
		H337c-4.3,0-7.2-3.6-7.2-7.2C329.9,203.5,332.7,200.6,337,200.6z M337,230h28.6c3.6,0,7.2,2.9,7.2,7.2c0,3.6-3.6,7.2-7.2,7.2H337
		c-4.3,0-7.2-3.6-7.2-7.2C329.9,232.8,332.7,230,337,230z M364.9,123.4h-28.6c-4.3,0-7.2-2.9-7.2-7.2c0-4.3,2.9-7.2,7.2-7.2h28.6
		c3.6,0,7.2,2.9,7.2,7.2C372.1,120.5,369.2,123.4,364.9,123.4z M364.9,93.3h-28.6c-4.3,0-7.2-2.9-7.2-7.2s2.9-7.2,7.2-7.2h28.6
		c3.6,0,7.2,2.9,7.2,7.2S369.2,93.3,364.9,93.3z"/>
</g>
</svg>
