<svg width="56" height="56" viewBox="0 0 56 56" fill="none" xmlns="http://www.w3.org/2000/svg">
<path d="M38.6597 36.1403L28.6069 26.2181V12.2486H32.5236V24.5861L41.4667 33.3333L38.6597 36.1403ZM30.6958 49C27.4319 49 24.3639 48.3799 21.4917 47.1396C18.6194 45.8993 16.1062 44.213 13.9521 42.0806C11.7979 39.9482 10.1007 37.4458 8.86042 34.5736C7.62014 31.7014 7 28.6333 7 25.3694C7 22.1056 7.62014 19.0593 8.86042 16.2306C10.1007 13.4019 11.7979 10.9322 13.9521 8.82153C16.1062 6.71088 18.6194 5.0463 21.4917 3.82778C24.3639 2.60926 27.4319 2 30.6958 2C34.1773 2 37.4738 2.76157 40.5854 4.28472C43.697 5.80787 46.3843 7.89676 48.6472 10.5514V3.63194H52.5639V17.2097H38.9208V13.2931H45.775C43.8602 11.0736 41.6081 9.28935 39.0187 7.94028C36.4294 6.5912 33.6551 5.91667 30.6958 5.91667C25.256 5.91667 20.5995 7.77708 16.7264 11.4979C12.8532 15.2188 10.9167 19.7773 10.9167 25.1736C10.9167 30.7005 12.8315 35.4005 16.6611 39.2736C20.4907 43.1468 25.169 45.0833 30.6958 45.0833C36.1356 45.0833 40.7269 43.1685 44.4694 39.3389C48.212 35.5093 50.0833 30.8745 50.0833 25.4347H54C54 31.9625 51.737 37.522 47.2111 42.1132C42.6852 46.7044 37.1801 49 30.6958 49Z" fill="#043365"/>
</svg>
