<?xml version="1.0" encoding="utf-8"?>
<!-- Generator: Adobe Illustrator 24.0.2, SVG Export Plug-In . SVG Version: 6.00 Build 0)  -->
<svg version="1.1" id="Layer_1" xmlns="http://www.w3.org/2000/svg" xmlns:xlink="http://www.w3.org/1999/xlink" x="0px" y="0px"
	 viewBox="0 0 60 57.1" style="enable-background:new 0 0 60 57.1;" xml:space="preserve">
<style type="text/css">
	.st0{display:none;}
	.st1{fill:#B7B7B7;}
</style>
<rect x="-730" y="-92.5" class="st0" width="802" height="805"/>
<path class="st1" d="M52,14.7c-1.5,0-2.8,0.4-4,1.2l-3.7-5.1c1.1-1,1.8-2.4,1.8-3.9c0-2.9-2.4-5.2-5.2-5.2S35.6,4,35.6,6.9
	c0,2.1,1.2,3.9,3,4.7l-1.5,4.1l-6.5-2.8c0.3-0.8,0.4-1.6,0.4-2.5c0-4.2-3.4-7.5-7.5-7.5S16,6.3,16,10.4c0,1,0.2,2,0.6,2.9l-6.4,3.2
	c-0.9-1.5-2.6-2.5-4.4-2.5c-2.9,0-5.2,2.4-5.2,5.2s2.4,5.2,5.2,5.2c0.2,0,0.4,0,0.5-0.1l1.2,6.1c-3.2,0.9-5.6,3.8-5.6,7.3
	c0,4.2,3.4,7.5,7.5,7.5c2.1,0,4.1-0.9,5.4-2.3l4.7,4c-0.6,0.8-0.9,1.9-0.9,3c0,2.9,2.4,5.2,5.2,5.2s5.2-2.4,5.2-5.2
	c0-2-1.1-3.7-2.7-4.6l2.1-4.7c1.1,0.4,2.4,0.7,3.7,0.7c5.7,0,10.4-4.7,10.4-10.4c0-1.3-0.2-2.5-0.7-3.6l3.4-1.5
	c1.1,2,3.1,3.4,5.3,3.7l-0.6,5.8c0,0,0,0,0,0c-2.9,0-5.2,2.4-5.2,5.2s2.4,5.2,5.2,5.2s5.2-2.4,5.2-5.2c0-2.5-1.8-4.7-4.2-5.1
	l0.6-5.8c0.1,0,0.2,0,0.2,0c4.2,0,7.5-3.4,7.5-7.5C59.5,18.1,56.1,14.7,52,14.7z M53.6,40.8c0,1.9-1.6,3.5-3.5,3.5s-3.5-1.6-3.5-3.5
	c0-1.9,1.6-3.5,3.5-3.5S53.6,38.9,53.6,40.8z M36.6,6.9c0-2.3,1.9-4.2,4.2-4.2s4.2,1.9,4.2,4.2c0,2.3-1.9,4.2-4.2,4.2
	S36.6,9.2,36.6,6.9z M39.6,12c0.4,0.1,0.8,0.2,1.3,0.2c1,0,1.9-0.3,2.6-0.7l3.7,5.1c-0.9,0.7-1.6,1.6-2,2.7l-7-3L39.6,12z
	 M32.2,20.7c-5.7,0-10.4,4.7-10.4,10.4c0,0.9,0.1,1.7,0.3,2.5l-5.6,1.7c-0.6-1.6-1.7-3-3.2-3.8l7.2-14.1c0.9,0.4,1.9,0.6,3,0.6
	c2.9,0,5.4-1.6,6.7-4.1l6.6,2.8l-1.6,4.5C34.3,20.9,33.3,20.7,32.2,20.7z M23.5,4.9c3.1,0,5.6,2.5,5.6,5.6c0,0.8-0.2,1.5-0.4,2.2
	c-0.9,2.1-2.9,3.4-5.1,3.4c-3.1,0-5.6-2.5-5.6-5.6S20.5,4.9,23.5,4.9z M1.5,19.3c0-2.3,1.9-4.2,4.2-4.2S10,17,10,19.3
	c0,2.3-1.9,4.2-4.2,4.2S1.5,21.7,1.5,19.3z M7.3,24.3c2.2-0.7,3.7-2.6,3.7-5c0-0.7-0.1-1.3-0.4-1.9l6.4-3.2c0.6,1.1,1.5,2,2.6,2.7
	L12.5,31c-0.9-0.4-1.9-0.6-3-0.6c-0.3,0-0.7,0-1,0.1L7.3,24.3z M9.5,44.1c-3.4,0-6.2-2.8-6.2-6.2s2.8-6.2,6.2-6.2s6.2,2.8,6.2,6.2
	S12.9,44.1,9.5,44.1z M28.2,50.1c0,2.3-1.9,4.2-4.2,4.2s-4.2-1.9-4.2-4.2c0-2.3,1.9-4.2,4.2-4.2S28.2,47.8,28.2,50.1z M25.6,45.1
	c-0.5-0.2-1-0.3-1.6-0.3c-1.4,0-2.7,0.6-3.7,1.5l-4.7-4c0.9-1.3,1.5-2.8,1.5-4.5c0-0.6-0.1-1.1-0.2-1.7l5.6-1.7
	c0.9,2.6,2.8,4.6,5.2,5.8L25.6,45.1z M32.2,39.7c-4.7,0-8.6-3.8-8.6-8.6c0-4.7,3.8-8.6,8.6-8.6s8.6,3.8,8.6,8.6
	C40.8,35.8,37,39.7,32.2,39.7z M41.5,26.6c-1.1-2.3-3-4.1-5.4-5l1.6-4.4l7,3c-0.2,0.7-0.3,1.5-0.3,2.2c0,1,0.2,1.9,0.5,2.8
	L41.5,26.6z M52,28.8c-3.6,0-6.5-2.9-6.5-6.5s2.9-6.5,6.5-6.5s6.5,2.9,6.5,6.5S55.6,28.8,52,28.8z"/>
</svg>
