<?xml version="1.0" encoding="utf-8"?>
<!-- Generator: Adobe Illustrator 24.0.2, SVG Export Plug-In . SVG Version: 6.00 Build 0)  -->
<svg version="1.1" id="Layer_1" xmlns="http://www.w3.org/2000/svg" xmlns:xlink="http://www.w3.org/1999/xlink" x="0px" y="0px"
	 viewBox="0 0 480 480" style="enable-background:new 0 0 480 480;" xml:space="preserve">
<style type="text/css">
	.st0{fill:#CCCCCC;}
</style>
<g>
	<path class="st0" d="M415.6,36.7h-52.4v-15c0-4.1-3.3-7.5-7.5-7.5H59c-4.1,0-7.5,3.3-7.5,7.5v433.8c0,4.1,3.3,7.5,7.5,7.5h296.8
		c4.1,0,7.5-3.3,7.5-7.5v-13.8h52.4c4.1,0,7.5-3.3,7.5-7.5V44.2C423.1,40,419.7,36.7,415.6,36.7z M348.3,448H66.5V29.2h281.8V448z
		 M408.1,426.7h-44.9V51.6h44.9V426.7z"/>
	<path class="st0" d="M241.9,135.5h61.4c2.1,0,4.1-0.9,5.5-2.4c1.4-1.5,2.1-3.5,2-5.5c-2.3-36.8-31.6-66.1-68.4-68.4
		c-4.1-0.2-7.7,2.9-7.9,7c0,0.2,0,0.3,0,0.5V128C234.5,132.1,237.8,135.5,241.9,135.5z M249.4,75.1c22.9,4.6,40.8,22.5,45.4,45.4
		h-45.4V75.1z"/>
	<rect x="80.2" y="44.2" class="st0" width="89.8" height="15"/>
	<path class="st0" d="M327,253.6h-29.9v-15c0-2.7-1.5-5.2-3.8-6.5l-33.1-18.4c9.1-12.6,14.1-27.9,14.1-43.5c0-1.8,0-3.5,0-5.3
		c-0.4-3.8-3.6-6.7-7.5-6.7h-55.1v-54.8c0-3.8-2.9-7.1-6.7-7.5c-1.8,0-3.5,0-5.3,0c-35.7,0.1-66.3,25.3-73.2,60.4h-8.8v-44.9h22.4
		c4.1,0,7.5-3.3,7.5-7.5V74.1c0-4.1-3.3-7.5-7.5-7.5H87.7c-4.1,0-7.5,3.3-7.5,7.5V104c0,4.1,3.3,7.5,7.5,7.5h15v52.4
		c0,4.1,3.3,7.5,7.5,7.5h15c0.9,41.3,35.1,74,76.4,73.1c17.9-0.4,35.2-7.2,48.5-19.3l32.2,17.9v10.5h-52.4c-4.1,0-7.5,3.3-7.5,7.5
		v37.4c0,4.1,3.3,7.5,7.5,7.5H327c4.1,0,7.5-3.3,7.5-7.5v-37.4C334.5,256.9,331.2,253.6,327,253.6z M95.2,81.5h37.4v15H95.2V81.5z
		 M199.9,229.9c-32.6,0-59.1-26-59.8-58.6h22.4v-15h-20.7c6.2-25.7,28.5-44.2,54.9-45.6v55c0,4.1,3.3,7.5,7.5,7.5h55
		c-0.6,12-4.9,23.6-12.2,33.1l-21-11.7l-7.5,13l17.4,9.6C225.6,225.4,213,229.8,199.9,229.9z M319.6,291h-82.3v-22.4h82.3V291z"/>
	<path class="st0" d="M327,380.7H87.7c-4.1,0-7.5,3.3-7.5,7.5v37.4c0,4.1,3.3,7.5,7.5,7.5H327c4.1,0,7.5-3.3,7.5-7.5v-37.4
		C334.5,384.1,331.2,380.7,327,380.7z M95.2,395.7h119.7v22.4H95.2V395.7z M319.6,418.1h-89.8v-22.4h89.8V418.1z"/>
	<rect x="80.2" y="291" class="st0" width="104.7" height="15"/>
	<rect x="80.2" y="320.9" class="st0" width="67.3" height="15"/>
	<rect x="162.5" y="320.9" class="st0" width="89.8" height="15"/>
	<rect x="80.2" y="350.8" class="st0" width="22.4" height="15"/>
	<rect x="117.6" y="350.8" class="st0" width="157.1" height="15"/>
</g>
</svg>
