<svg width="450" height="450" viewBox="0 0 450 450" fill="none" xmlns="http://www.w3.org/2000/svg">
<mask id="mask0_2558_50254" style="mask-type:alpha" maskUnits="userSpaceOnUse" x="0" y="0" width="450" height="450">
<circle cx="225" cy="225" r="225" fill="white"/>
</mask>
<g mask="url(#mask0_2558_50254)">
<circle cx="225" cy="225" r="225" fill="url(#paint0_linear_2558_50254)"/>
<path d="M160.888 271.578L169.995 344.793L139.41 360.052L132.358 246.113L158.137 233.252L244.927 307.409L214.342 322.668L160.888 271.578Z" fill="white"/>
<path d="M160.888 271.578L162.96 269.409L156.871 263.589L157.91 271.948L160.888 271.578ZM169.995 344.793L171.334 347.478L173.234 346.53L172.972 344.423L169.995 344.793ZM139.41 360.052L136.416 360.237L136.696 364.759L140.749 362.736L139.41 360.052ZM132.358 246.113L131.019 243.429L129.241 244.316L129.364 246.299L132.358 246.113ZM158.137 233.252L160.086 230.972L158.575 229.681L156.798 230.568L158.137 233.252ZM244.927 307.409L246.266 310.093L250.32 308.071L246.876 305.128L244.927 307.409ZM214.342 322.668L212.27 324.837L213.794 326.294L215.682 325.352L214.342 322.668ZM157.91 271.948L167.018 345.164L172.972 344.423L163.865 271.208L157.91 271.948ZM168.655 342.109L138.071 357.368L140.749 362.736L171.334 347.478L168.655 342.109ZM142.404 359.867L135.353 245.928L129.364 246.299L136.416 360.237L142.404 359.867ZM133.698 248.798L159.476 235.937L156.798 230.568L131.019 243.429L133.698 248.798ZM156.188 235.533L242.978 309.69L246.876 305.128L160.086 230.972L156.188 235.533ZM243.588 304.725L213.003 319.983L215.682 325.352L246.266 310.093L243.588 304.725ZM216.415 320.499L162.96 269.409L158.815 273.747L212.27 324.837L216.415 320.499Z" fill="url(#paint1_linear_2558_50254)"/>
<path d="M230.302 122.947L265.812 149.043L246.945 174.716L211.435 148.62L181.941 188.753L154.891 168.874L184.384 128.741L148.776 102.573L167.643 76.9L203.251 103.068L231.516 64.6074L258.566 84.4865L230.302 122.947Z" fill="white"/>
<path d="M230.302 122.947L227.884 121.171L226.108 123.588L228.525 125.365L230.302 122.947ZM265.812 149.043L268.229 150.82L270.006 148.402L267.588 146.626L265.812 149.043ZM246.945 174.716L245.168 177.134L247.585 178.91L249.362 176.493L246.945 174.716ZM211.435 148.62L213.211 146.203L210.794 144.427L209.017 146.844L211.435 148.62ZM181.941 188.753L180.165 191.171L182.582 192.947L184.359 190.53L181.941 188.753ZM154.891 168.874L152.474 167.098L150.697 169.515L153.115 171.292L154.891 168.874ZM184.384 128.741L186.802 130.518L188.578 128.101L186.161 126.324L184.384 128.741ZM148.776 102.573L146.359 100.797L144.582 103.214L147 104.991L148.776 102.573ZM167.643 76.9L169.42 74.4826L167.002 72.7061L165.226 75.1235L167.643 76.9ZM203.251 103.068L201.475 105.486L203.892 107.262L205.669 104.845L203.251 103.068ZM231.516 64.6074L233.292 62.19L230.875 60.4135L229.098 62.8309L231.516 64.6074ZM258.566 84.4865L260.984 86.263L262.76 83.8456L260.343 82.0691L258.566 84.4865ZM228.525 125.365L264.035 151.46L267.588 146.626L232.078 120.53L228.525 125.365ZM263.394 147.266L244.527 172.94L249.362 176.493L268.229 150.82L263.394 147.266ZM248.721 172.299L213.211 146.203L209.658 151.038L245.168 177.134L248.721 172.299ZM209.017 146.844L179.524 186.977L184.359 190.53L213.852 150.397L209.017 146.844ZM183.718 186.336L156.668 166.457L153.115 171.292L180.165 191.171L183.718 186.336ZM157.309 170.651L186.802 130.518L181.967 126.965L152.474 167.098L157.309 170.651ZM186.161 126.324L150.553 100.156L147 104.991L182.608 131.159L186.161 126.324ZM151.194 104.35L170.061 78.6766L165.226 75.1235L146.359 100.797L151.194 104.35ZM165.867 79.3175L201.475 105.486L205.028 100.651L169.42 74.4826L165.867 79.3175ZM205.669 104.845L233.933 66.384L229.098 62.8309L200.834 101.292L205.669 104.845ZM229.739 67.0248L256.79 86.9039L260.343 82.0691L233.292 62.19L229.739 67.0248ZM256.149 82.7099L227.884 121.171L232.719 124.724L260.984 86.263L256.149 82.7099Z" fill="url(#paint2_linear_2558_50254)"/>
<path d="M133.854 350L65.7862 359.489L61.8592 331.319L129.927 321.83L133.854 350Z" fill="white"/>
<path d="M133.854 350L134.268 352.971L137.239 352.557L136.825 349.585L133.854 350ZM65.7862 359.489L62.815 359.903L63.2292 362.874L66.2005 362.46L65.7862 359.489ZM61.8592 331.319L61.445 328.347L58.4737 328.762L58.8879 331.733L61.8592 331.319ZM129.927 321.83L132.898 321.415L132.484 318.444L129.512 318.858L129.927 321.83ZM133.439 347.028L65.372 356.517L66.2005 362.46L134.268 352.971L133.439 347.028ZM68.7575 359.074L64.8305 330.904L58.8879 331.733L62.815 359.903L68.7575 359.074ZM62.2734 334.29L130.341 324.801L129.512 318.858L61.445 328.347L62.2734 334.29ZM126.955 322.244L130.882 350.414L136.825 349.585L132.898 321.415L126.955 322.244Z" fill="url(#paint3_linear_2558_50254)"/>
<path d="M247.234 358.535L221.649 352.685L328.45 179.131L354.035 184.981L247.234 358.535Z" fill="white"/>
<path d="M247.234 358.535L246.565 361.459L248.662 361.939L249.789 360.107L247.234 358.535ZM221.649 352.685L219.094 351.113L216.901 354.677L220.98 355.609L221.649 352.685ZM328.45 179.131L329.118 176.206L327.022 175.727L325.895 177.558L328.45 179.131ZM354.035 184.981L356.59 186.553L358.783 182.989L354.703 182.056L354.035 184.981ZM247.903 355.61L222.318 349.76L220.98 355.609L246.565 361.459L247.903 355.61ZM224.204 354.257L331.005 180.703L325.895 177.558L219.094 351.113L224.204 354.257ZM327.781 182.055L353.366 187.905L354.703 182.056L329.118 176.206L327.781 182.055ZM351.48 183.408L244.679 356.962L249.789 360.107L356.59 186.553L351.48 183.408Z" fill="url(#paint4_linear_2558_50254)"/>
<path d="M360.68 331.982L304.87 281.69L318.001 250.397L398.802 332.622L387.703 359.075L272.374 359.132L285.552 327.728L360.68 331.982Z" fill="white"/>
<path d="M360.68 331.982L360.511 334.977L369.02 335.459L362.689 329.753L360.68 331.982ZM304.87 281.69L302.104 280.529L301.28 282.493L302.862 283.918L304.87 281.69ZM318.001 250.397L320.141 248.295L316.98 245.078L315.235 249.237L318.001 250.397ZM398.802 332.622L401.569 333.783L402.341 331.943L400.942 330.52L398.802 332.622ZM387.703 359.075L387.704 362.075L389.698 362.074L390.469 360.235L387.703 359.075ZM272.374 359.132L269.608 357.972L267.861 362.135L272.375 362.132L272.374 359.132ZM285.552 327.728L285.722 324.732L283.606 324.613L282.786 326.567L285.552 327.728ZM362.689 329.753L306.878 279.461L302.862 283.918L358.672 334.211L362.689 329.753ZM307.636 282.851L320.767 251.558L315.235 249.237L302.104 280.529L307.636 282.851ZM315.861 252.5L396.663 334.725L400.942 330.52L320.141 248.295L315.861 252.5ZM396.036 331.462L384.936 357.914L390.469 360.235L401.569 333.783L396.036 331.462ZM387.701 356.075L272.372 356.132L272.375 362.132L387.704 362.075L387.701 356.075ZM275.14 360.293L288.318 328.888L282.786 326.567L269.608 357.972L275.14 360.293ZM285.382 330.723L360.511 334.977L360.85 328.987L285.722 324.732L285.382 330.723Z" fill="url(#paint5_linear_2558_50254)"/>
<path d="M131.425 189.194C139.259 199.728 152.402 202.33 170.857 197.001L195.595 189.402C213.176 184.001 227.576 187.367 238.795 199.5C241.267 183.161 251.489 172.231 269.459 166.711L293.846 159.219C311.876 153.339 321.292 143.806 322.094 130.62L342.888 131.383C343.276 146.503 340.112 158.925 333.394 168.651C326.754 178.353 316.29 185.441 302 189.916L276.912 197.623C261.527 202.69 255.913 211.992 260.072 225.527L235.917 232.948C231.663 219.101 221.407 214.674 205.148 219.669L179.827 227.448C152.409 235.19 130.643 226.552 114.529 201.535L131.425 189.194Z" fill="white"/>
<path d="M131.425 189.194L133.833 187.403L132.058 185.017L129.656 186.771L131.425 189.194ZM170.857 197.001L171.689 199.884L171.714 199.877L171.738 199.869L170.857 197.001ZM238.795 199.5L236.592 201.537L240.828 206.117L241.761 199.949L238.795 199.5ZM293.846 159.219L294.727 162.087L294.752 162.079L294.777 162.071L293.846 159.219ZM322.094 130.62L322.204 127.622L319.277 127.514L319.099 130.438L322.094 130.62ZM342.888 131.383L345.887 131.306L345.815 128.488L342.998 128.385L342.888 131.383ZM333.394 168.651L330.926 166.946L330.918 166.957L333.394 168.651ZM302 189.916L302.881 192.784L302.889 192.782L302.896 192.779L302 189.916ZM276.912 197.623L276.031 194.756L276.002 194.764L275.973 194.774L276.912 197.623ZM260.072 225.527L260.953 228.395L263.82 227.514L262.939 224.646L260.072 225.527ZM235.917 232.948L233.049 233.829L233.93 236.696L236.798 235.815L235.917 232.948ZM179.827 227.448L180.642 230.335L180.675 230.326L180.708 230.316L179.827 227.448ZM114.529 201.535L112.76 199.113L110.475 200.782L112.007 203.16L114.529 201.535ZM129.018 190.984C137.938 202.979 152.694 205.369 171.689 199.884L170.025 194.119C152.111 199.292 140.579 196.476 133.833 187.403L129.018 190.984ZM171.738 199.869L196.476 192.27L194.714 186.534L169.976 194.134L171.738 199.869ZM196.476 192.27C204.881 189.687 212.327 189.261 218.898 190.797C225.447 192.328 231.34 195.857 236.592 201.537L240.998 197.463C235.031 191.01 228.114 186.79 220.264 184.954C212.435 183.124 203.889 183.715 194.714 186.534L196.476 192.27ZM241.761 199.949C242.917 192.314 245.853 186.074 250.506 181.098C255.179 176.101 261.729 172.224 270.34 169.579L268.578 163.843C259.218 166.718 251.673 171.066 246.124 176.999C240.556 182.953 237.146 190.347 235.829 199.051L241.761 199.949ZM270.34 169.579L294.727 162.087L292.965 156.351L268.578 163.843L270.34 169.579ZM294.777 162.071C313.373 156.007 324.18 145.749 325.088 130.802L319.099 130.438C318.405 141.864 310.38 150.672 292.916 156.367L294.777 162.071ZM321.984 133.618L342.778 134.381L342.998 128.385L322.204 127.622L321.984 133.618ZM339.889 131.46C340.266 146.123 337.192 157.873 330.926 166.946L335.863 170.356C343.031 159.978 346.287 146.883 345.887 131.306L339.889 131.46ZM330.918 166.957C324.753 175.966 314.929 182.724 301.103 187.053L302.896 192.779C317.65 188.159 328.756 180.74 335.87 170.345L330.918 166.957ZM301.119 187.049L276.031 194.756L277.793 200.491L302.881 192.784L301.119 187.049ZM275.973 194.774C267.924 197.425 261.916 201.345 258.594 206.849C255.222 212.437 254.955 219.087 257.204 226.408L262.939 224.646C261.03 218.432 261.49 213.663 263.731 209.95C266.023 206.153 270.515 202.889 277.85 200.473L275.973 194.774ZM259.191 222.66L235.036 230.08L236.798 235.815L260.953 228.395L259.191 222.66ZM238.785 232.067C236.482 224.57 232.384 219.147 226.223 216.488C220.174 213.878 212.736 214.2 204.267 216.801L206.029 222.537C213.819 220.144 219.639 220.182 223.846 221.997C227.941 223.765 231.099 227.478 233.049 233.829L238.785 232.067ZM204.267 216.801L178.946 224.58L180.708 230.316L206.029 222.537L204.267 216.801ZM179.012 224.561C165.796 228.293 154.192 228.015 144.045 223.988C133.884 219.956 124.861 212.036 117.051 199.911L112.007 203.16C120.311 216.051 130.227 224.959 141.832 229.565C153.451 234.175 166.44 234.345 180.642 230.335L179.012 224.561ZM116.299 203.958L133.195 191.616L129.656 186.771L112.76 199.113L116.299 203.958Z" fill="url(#paint6_linear_2558_50254)"/>
<line x1="444" y1="363.5" x2="6" y2="363.5" stroke="url(#paint7_linear_2558_50254)" stroke-width="3"/>
</g>
<defs>
<linearGradient id="paint0_linear_2558_50254" x1="225" y1="0.00012207" x2="225" y2="450" gradientUnits="userSpaceOnUse">
<stop stop-color="#48ADF5" stop-opacity="0.1"/>
<stop offset="1" stop-color="#6C83E5" stop-opacity="0.02"/>
<stop offset="1" stop-color="#6C84E6" stop-opacity="0.05"/>
<stop offset="1" stop-color="#6F81E5" stop-opacity="0.1"/>
</linearGradient>
<linearGradient id="paint1_linear_2558_50254" x1="310.751" y1="221.268" x2="48.5694" y2="352.072" gradientUnits="userSpaceOnUse">
<stop stop-color="#6191C2"/>
<stop offset="0.9999" stop-color="#99C0EB"/>
</linearGradient>
<linearGradient id="paint2_linear_2558_50254" x1="295.706" y1="6.56441" x2="122.197" y2="242.666" gradientUnits="userSpaceOnUse">
<stop stop-color="#6191C2"/>
<stop offset="0.9999" stop-color="#99C0EB"/>
</linearGradient>
<linearGradient id="paint3_linear_2558_50254" x1="75.13" y1="186.431" x2="115.584" y2="476.624" gradientUnits="userSpaceOnUse">
<stop stop-color="#6191C2"/>
<stop offset="0.9999" stop-color="#99C0EB"/>
</linearGradient>
<linearGradient id="paint4_linear_2558_50254" x1="324.126" y1="122.476" x2="258.818" y2="408.105" gradientUnits="userSpaceOnUse">
<stop stop-color="#6191C2"/>
<stop offset="0.9999" stop-color="#99C0EB"/>
</linearGradient>
<linearGradient id="paint5_linear_2558_50254" x1="402.148" y1="179.994" x2="288.777" y2="450.172" gradientUnits="userSpaceOnUse">
<stop stop-color="#6191C2"/>
<stop offset="0.9999" stop-color="#99C0EB"/>
</linearGradient>
<linearGradient id="paint6_linear_2558_50254" x1="387.269" y1="149.67" x2="107.187" y2="235.712" gradientUnits="userSpaceOnUse">
<stop stop-color="#6191C2"/>
<stop offset="0.9999" stop-color="#99C0EB"/>
</linearGradient>
<linearGradient id="paint7_linear_2558_50254" x1="444" y1="362" x2="6" y2="362" gradientUnits="userSpaceOnUse">
<stop stop-color="#6191C2"/>
<stop offset="0.9999" stop-color="#99C0EB"/>
</linearGradient>
</defs>
</svg>
