<svg width="63" height="90" viewBox="0 0 63 90" fill="none" xmlns="http://www.w3.org/2000/svg">
<path d="M17.9813 58.4813L3 84.2925V84.834H59.4958C55.6452 76.0498 45.778 59.5643 45.778 59.5643C43.612 60.6473 40.3631 62.2718 32.0602 57.0373C25.4178 52.8498 21.0498 56.4357 17.9813 58.4813Z" fill="#7BE6CA"/>
<mask id="path-2-outside-1_5437_88419" maskUnits="userSpaceOnUse" x="-0.710938" y="14.5" width="63" height="76" fill="black">
<rect fill="white" x="-0.710938" y="14.5" width="63" height="76"/>
<path fill-rule="evenodd" clip-rule="evenodd" d="M23.8705 21.5H38.9125C39.2788 21.5 39.5334 21.8644 39.4073 22.2083C39.3312 22.4159 39.1336 22.5539 38.9125 22.5539H23.8705C23.6545 22.5539 23.4604 22.4222 23.3807 22.2214C23.2433 21.8755 23.4982 21.5 23.8705 21.5ZM21.5218 22.9595C20.8631 21.3005 22.0855 19.5 23.8705 19.5H38.9125C40.6689 19.5 41.8896 21.2475 41.2852 22.8965C40.9263 23.8758 40.0036 24.5323 38.9643 24.5534V25.832V41.2347C38.9643 42.6421 39.3356 44.0245 40.0406 45.2425L56.0111 72.8325C59.0983 78.1659 55.2498 84.8403 49.0874 84.8403H13.301C7.13862 84.8403 3.29012 78.1659 6.37733 72.8325L22.3478 45.2425C23.0529 44.0245 23.4241 42.6421 23.4241 41.2347V25.832V24.5143C22.5743 24.362 21.8481 23.7812 21.5218 22.9595ZM25.4241 25.832H36.9643V41.2347C36.9643 42.9939 37.4284 44.722 38.3097 46.2445L54.2802 73.8345C56.5956 77.8345 53.7092 82.8403 49.0874 82.8403H13.301C8.67922 82.8403 5.79285 77.8345 8.10825 73.8345L24.0788 46.2445C24.9601 44.722 25.4241 42.9939 25.4241 41.2347V25.832Z"/>
</mask>
<path fill-rule="evenodd" clip-rule="evenodd" d="M23.8705 21.5H38.9125C39.2788 21.5 39.5334 21.8644 39.4073 22.2083C39.3312 22.4159 39.1336 22.5539 38.9125 22.5539H23.8705C23.6545 22.5539 23.4604 22.4222 23.3807 22.2214C23.2433 21.8755 23.4982 21.5 23.8705 21.5ZM21.5218 22.9595C20.8631 21.3005 22.0855 19.5 23.8705 19.5H38.9125C40.6689 19.5 41.8896 21.2475 41.2852 22.8965C40.9263 23.8758 40.0036 24.5323 38.9643 24.5534V25.832V41.2347C38.9643 42.6421 39.3356 44.0245 40.0406 45.2425L56.0111 72.8325C59.0983 78.1659 55.2498 84.8403 49.0874 84.8403H13.301C7.13862 84.8403 3.29012 78.1659 6.37733 72.8325L22.3478 45.2425C23.0529 44.0245 23.4241 42.6421 23.4241 41.2347V25.832V24.5143C22.5743 24.362 21.8481 23.7812 21.5218 22.9595ZM25.4241 25.832H36.9643V41.2347C36.9643 42.9939 37.4284 44.722 38.3097 46.2445L54.2802 73.8345C56.5956 77.8345 53.7092 82.8403 49.0874 82.8403H13.301C8.67922 82.8403 5.79285 77.8345 8.10825 73.8345L24.0788 46.2445C24.9601 44.722 25.4241 42.9939 25.4241 41.2347V25.832Z" fill="#043365"/>
<path d="M39.4073 22.2083L44.102 23.9289L44.102 23.9289L39.4073 22.2083ZM23.3807 22.2214L28.0278 20.3763L28.0278 20.3763L23.3807 22.2214ZM21.5218 22.9595L16.8747 24.8046L16.8747 24.8046L21.5218 22.9595ZM41.2852 22.8965L36.5905 21.176L36.5905 21.176L41.2852 22.8965ZM38.9643 24.5534L38.8626 19.5545L33.9643 19.6542V24.5534H38.9643ZM40.0406 45.2425L44.3679 42.7377V42.7377L40.0406 45.2425ZM56.0111 72.8325L60.3384 70.3277L56.0111 72.8325ZM6.37733 72.8325L10.7046 75.3374L6.37733 72.8325ZM22.3478 45.2425L18.0205 42.7377L18.0205 42.7377L22.3478 45.2425ZM23.4241 24.5143H28.4241V20.3308L24.3062 19.5927L23.4241 24.5143ZM36.9643 25.832H41.9643V20.832H36.9643V25.832ZM25.4241 25.832V20.832H20.4241V25.832H25.4241ZM38.3097 46.2445L42.637 43.7396L42.637 43.7396L38.3097 46.2445ZM54.2802 73.8345L58.6075 71.3296L54.2802 73.8345ZM8.10825 73.8345L3.78094 71.3296L3.78094 71.3296L8.10825 73.8345ZM24.0788 46.2445L28.4061 48.7494V48.7494L24.0788 46.2445ZM38.9125 16.5H23.8705V26.5H38.9125V16.5ZM44.102 23.9289C45.4238 20.3221 42.754 16.5 38.9125 16.5V26.5C35.8036 26.5 33.6429 23.4068 34.7127 20.4878L44.102 23.9289ZM38.9125 27.5539C41.2315 27.5539 43.3039 26.1063 44.102 23.9289L34.7127 20.4877C35.3585 18.7255 37.0357 17.5539 38.9125 17.5539V27.5539ZM23.8705 27.5539H38.9125V17.5539H23.8705V27.5539ZM18.7336 24.0665C19.5695 26.1718 21.6053 27.5539 23.8705 27.5539V17.5539C25.7037 17.5539 27.3513 18.6725 28.0278 20.3763L18.7336 24.0665ZM23.8705 16.5C19.9664 16.5 17.2929 20.438 18.7336 24.0666L28.0278 20.3763C29.1938 23.313 27.0301 26.5 23.8705 26.5V16.5ZM23.8705 14.5C18.5536 14.5 14.9127 19.863 16.8747 24.8046L26.169 21.1144C26.8136 22.738 25.6174 24.5 23.8705 24.5V14.5ZM38.9125 14.5H23.8705V24.5H38.9125V14.5ZM45.9798 24.6171C47.7801 19.7051 44.144 14.5 38.9125 14.5V24.5C37.1937 24.5 35.9991 22.7898 36.5905 21.176L45.9798 24.6171ZM39.0661 29.5524C42.1624 29.4894 44.9107 27.5342 45.9798 24.6171L36.5905 21.176C36.9419 20.2174 37.8447 19.5752 38.8626 19.5545L39.0661 29.5524ZM33.9643 24.5534V25.832H43.9643V24.5534H33.9643ZM33.9643 25.832V41.2347H43.9643V25.832H33.9643ZM33.9643 41.2347C33.9643 43.5217 34.5676 45.7682 35.7133 47.7474L44.3679 42.7377C44.1036 42.2809 43.9643 41.7625 43.9643 41.2347H33.9643ZM35.7133 47.7474L51.6838 75.3374L60.3384 70.3277L44.3679 42.7377L35.7133 47.7474ZM51.6838 75.3374C52.8415 77.3374 51.3983 79.8403 49.0874 79.8403V89.8403C59.1013 89.8403 65.3552 78.9943 60.3384 70.3277L51.6838 75.3374ZM49.0874 79.8403H13.301V89.8403H49.0874V79.8403ZM13.301 79.8403C10.9901 79.8403 9.54694 77.3374 10.7046 75.3374L2.05002 70.3277C-2.96669 78.9943 3.28711 89.8403 13.301 89.8403V79.8403ZM10.7046 75.3374L26.6751 47.7474L18.0205 42.7377L2.05002 70.3277L10.7046 75.3374ZM26.6751 47.7474C27.8208 45.7682 28.4241 43.5217 28.4241 41.2347H18.4241C18.4241 41.7625 18.2849 42.2809 18.0205 42.7377L26.6751 47.7474ZM28.4241 41.2347V25.832H18.4241V41.2347H28.4241ZM28.4241 25.832V24.5143H18.4241V25.832H28.4241ZM16.8747 24.8046C17.8471 27.2537 20.0103 28.9822 22.542 29.4359L24.3062 19.5927C25.1382 19.7419 25.8491 20.3088 26.169 21.1144L16.8747 24.8046ZM36.9643 20.832H25.4241V30.832H36.9643V20.832ZM41.9643 41.2347V25.832H31.9643V41.2347H41.9643ZM42.637 43.7396C42.1964 42.9784 41.9643 42.1143 41.9643 41.2347H31.9643C31.9643 43.8735 32.6604 46.4656 33.9824 48.7494L42.637 43.7396ZM58.6075 71.3296L42.637 43.7396L33.9824 48.7494L49.9529 76.3393L58.6075 71.3296ZM49.0874 87.8403C57.5607 87.8403 62.8524 78.6629 58.6075 71.3296L49.9529 76.3393C50.3388 77.006 49.8577 77.8403 49.0874 77.8403V87.8403ZM13.301 87.8403H49.0874V77.8403H13.301V87.8403ZM3.78094 71.3296C-0.463963 78.6629 4.82772 87.8403 13.301 87.8403V77.8403C12.5307 77.8403 12.0497 77.006 12.4356 76.3393L3.78094 71.3296ZM19.7514 43.7396L3.78094 71.3296L12.4356 76.3393L28.4061 48.7494L19.7514 43.7396ZM20.4241 41.2347C20.4241 42.1143 20.1921 42.9784 19.7514 43.7396L28.4061 48.7494C29.728 46.4656 30.4241 43.8735 30.4241 41.2347H20.4241ZM20.4241 25.832V41.2347H30.4241V25.832H20.4241Z" fill="white" mask="url(#path-2-outside-1_5437_88419)"/>
<circle cx="29.8942" cy="48.3736" r="2.52697" fill="#7BE6CA"/>
<circle cx="31.519" cy="38.0854" r="1.62448" fill="#7BE6CA"/>
<circle cx="31.1603" cy="31.2257" r="0.90249" fill="#7BE6CA"/>
<circle cx="28.631" cy="13.5372" r="3.06846" fill="#7BE6CA"/>
<circle cx="32.2433" cy="1.98548" r="1.98548" fill="#7BE6CA"/>
</svg>
