<svg width="62" height="92" viewBox="0 0 62 92" fill="none" xmlns="http://www.w3.org/2000/svg">
<path fill-rule="evenodd" clip-rule="evenodd" d="M24.18 23.6597H38.7037C39.068 23.6597 39.3224 24.0206 39.2 24.3638C39.1251 24.5736 38.9264 24.7136 38.7037 24.7136H24.18C23.9623 24.7136 23.767 24.5797 23.6885 24.3767C23.555 24.0314 23.8098 23.6597 24.18 23.6597ZM21.8231 25.0979C21.1829 23.4421 22.4047 21.6597 24.18 21.6597H38.7037C40.4509 21.6597 41.6709 23.3904 41.0836 25.036C40.7373 26.0065 39.8383 26.6658 38.8164 26.7111V27.9916V43.4433C38.8164 44.8197 39.1714 46.1727 39.8472 47.3716L55.461 75.0716C58.467 80.4045 54.6136 86.9999 48.4919 86.9999H14.0081C7.88635 86.9999 4.03299 80.4045 7.03901 75.0716L22.6527 47.3716C23.3286 46.1727 23.6836 44.8197 23.6836 43.4433V27.9916V26.6645C22.8477 26.4972 22.1386 25.9141 21.8231 25.0979ZM25.6836 27.9916H36.8164V43.4433C36.8164 45.1637 37.2602 46.855 38.105 48.3537L53.7187 76.0537C55.9732 80.0534 53.0832 84.9999 48.4919 84.9999H14.0081C9.41679 84.9999 6.52677 80.0534 8.78129 76.0537L24.395 48.3537C25.2398 46.855 25.6836 45.1637 25.6836 43.4433V27.9916Z" fill="#043365"/>
<path d="M18.3846 58.4813L3.79605 84.2925V84.834H58.8105C55.0609 76.0498 45.4524 59.5643 45.4524 59.5643C43.3432 60.6473 40.1794 62.2717 32.0942 57.0373C25.6261 52.8497 21.3726 56.4357 18.3846 58.4813Z" fill="#365C84"/>
<mask id="path-3-outside-1_4338_70999" maskUnits="userSpaceOnUse" x="-0.00355148" y="16.6597" width="62" height="76" fill="black">
<rect fill="white" x="-0.00355148" y="16.6597" width="62" height="76"/>
<path fill-rule="evenodd" clip-rule="evenodd" d="M24.18 23.6597H38.7037C39.068 23.6597 39.3224 24.0206 39.2 24.3638C39.1251 24.5736 38.9264 24.7136 38.7037 24.7136H24.18C23.9623 24.7136 23.767 24.5797 23.6885 24.3767C23.555 24.0314 23.8098 23.6597 24.18 23.6597ZM21.8231 25.0979C21.1829 23.4421 22.4047 21.6597 24.18 21.6597H38.7037C40.4509 21.6597 41.6709 23.3904 41.0836 25.036C40.7373 26.0065 39.8383 26.6658 38.8164 26.7111V27.9916V43.4433C38.8164 44.8197 39.1714 46.1727 39.8473 47.3716L55.461 75.0716C58.467 80.4045 54.6136 86.9999 48.4919 86.9999H14.0081C7.88635 86.9999 4.03299 80.4045 7.03901 75.0716L22.6527 47.3716C23.3286 46.1727 23.6836 44.8197 23.6836 43.4433V27.9916V26.6645C22.8477 26.4972 22.1386 25.9141 21.8231 25.0979ZM25.6836 27.9916H36.8164V43.4433C36.8164 45.1637 37.2602 46.855 38.105 48.3537L53.7187 76.0537C55.9732 80.0534 53.0832 84.9999 48.4919 84.9999H14.0081C9.41679 84.9999 6.52677 80.0534 8.78129 76.0537L24.395 48.3537C25.2398 46.855 25.6836 45.1637 25.6836 43.4433V27.9916Z"/>
</mask>
<path fill-rule="evenodd" clip-rule="evenodd" d="M24.18 23.6597H38.7037C39.068 23.6597 39.3224 24.0206 39.2 24.3638C39.1251 24.5736 38.9264 24.7136 38.7037 24.7136H24.18C23.9623 24.7136 23.767 24.5797 23.6885 24.3767C23.555 24.0314 23.8098 23.6597 24.18 23.6597ZM21.8231 25.0979C21.1829 23.4421 22.4047 21.6597 24.18 21.6597H38.7037C40.4509 21.6597 41.6709 23.3904 41.0836 25.036C40.7373 26.0065 39.8383 26.6658 38.8164 26.7111V27.9916V43.4433C38.8164 44.8197 39.1714 46.1727 39.8473 47.3716L55.461 75.0716C58.467 80.4045 54.6136 86.9999 48.4919 86.9999H14.0081C7.88635 86.9999 4.03299 80.4045 7.03901 75.0716L22.6527 47.3716C23.3286 46.1727 23.6836 44.8197 23.6836 43.4433V27.9916V26.6645C22.8477 26.4972 22.1386 25.9141 21.8231 25.0979ZM25.6836 27.9916H36.8164V43.4433C36.8164 45.1637 37.2602 46.855 38.105 48.3537L53.7187 76.0537C55.9732 80.0534 53.0832 84.9999 48.4919 84.9999H14.0081C9.41679 84.9999 6.52677 80.0534 8.78129 76.0537L24.395 48.3537C25.2398 46.855 25.6836 45.1637 25.6836 43.4433V27.9916Z" fill="#043365"/>
<path d="M39.2 24.3638L34.4909 22.6831L34.4909 22.6832L39.2 24.3638ZM23.6885 24.3767L19.0249 26.1798L19.0249 26.1798L23.6885 24.3767ZM21.8231 25.0979L26.4866 23.2948L26.4866 23.2948L21.8231 25.0979ZM41.0836 25.036L45.7927 26.7167L45.7927 26.7167L41.0836 25.036ZM38.8164 26.7111L38.5947 21.716L33.8164 21.928V26.7111H38.8164ZM39.8473 47.3716L44.2029 44.9165L44.2029 44.9164L39.8473 47.3716ZM55.461 75.0716L59.8167 72.6164L59.8167 72.6164L55.461 75.0716ZM7.03901 75.0716L11.3947 77.5268L7.03901 75.0716ZM22.6527 47.3716L18.2971 44.9165V44.9165L22.6527 47.3716ZM23.6836 26.6645H28.6836V22.5661L24.6649 21.7617L23.6836 26.6645ZM36.8164 27.9916H41.8164V22.9916H36.8164V27.9916ZM25.6836 27.9916V22.9916H20.6836V27.9916H25.6836ZM38.105 48.3537L33.7493 50.8089L38.105 48.3537ZM53.7187 76.0537L49.363 78.5089L53.7187 76.0537ZM8.78129 76.0537L4.42559 73.5985L4.42559 73.5985L8.78129 76.0537ZM24.395 48.3537L28.7507 50.8089L24.395 48.3537ZM38.7037 18.6597H24.18V28.6597H38.7037V18.6597ZM43.909 26.0444C45.1936 22.4452 42.5252 18.6597 38.7037 18.6597V28.6597C35.6108 28.6597 33.4513 25.596 34.4909 22.6831L43.909 26.0444ZM38.7037 29.7136C41.0398 29.7136 43.1238 28.2447 43.9091 26.0443L34.4909 22.6832C35.1264 20.9024 36.813 19.7136 38.7037 19.7136V29.7136ZM24.18 29.7136H38.7037V19.7136H24.18V29.7136ZM19.0249 26.1798C19.8484 28.3095 21.8967 29.7136 24.18 29.7136V19.7136C26.028 19.7136 27.6857 20.85 28.3521 22.5736L19.0249 26.1798ZM24.18 18.6597C20.2972 18.6597 17.6247 22.5582 19.0249 26.1798L28.3521 22.5736C29.4853 25.5046 27.3224 28.6597 24.18 28.6597V18.6597ZM24.18 16.6597C18.8921 16.6597 15.2526 21.9689 17.1595 26.901L26.4866 23.2948C27.1132 24.9153 25.9174 26.6597 24.18 26.6597V16.6597ZM38.7037 16.6597H24.18V26.6597H38.7037V16.6597ZM45.7927 26.7167C47.542 21.815 43.9081 16.6597 38.7037 16.6597V26.6597C36.9937 26.6597 35.7998 24.9659 36.3745 23.3554L45.7927 26.7167ZM39.038 31.7062C42.0835 31.5711 44.7609 29.6078 45.7927 26.7167L36.3745 23.3554C36.7136 22.4052 37.5931 21.7605 38.5947 21.716L39.038 31.7062ZM33.8164 26.7111V27.9916H43.8164V26.7111H33.8164ZM33.8164 27.9916V43.4433H43.8164V27.9916H33.8164ZM33.8164 43.4433C33.8164 45.6798 34.3933 47.8785 35.4916 49.8268L44.2029 44.9164C43.9495 44.4668 43.8164 43.9595 43.8164 43.4433H33.8164ZM35.4916 49.8268L51.1053 77.5268L59.8167 72.6164L44.2029 44.9165L35.4916 49.8268ZM51.1053 77.5268C52.2326 79.5267 50.7875 81.9999 48.4919 81.9999V91.9999C58.4398 91.9999 64.7014 81.2824 59.8167 72.6164L51.1053 77.5268ZM48.4919 81.9999H14.0081V91.9999H48.4919V81.9999ZM14.0081 81.9999C11.7125 81.9999 10.2674 79.5266 11.3947 77.5268L2.68332 72.6164C-2.20146 81.2824 4.06025 91.9999 14.0081 91.9999V81.9999ZM11.3947 77.5268L27.0084 49.8268L18.2971 44.9165L2.68332 72.6164L11.3947 77.5268ZM27.0084 49.8268C28.1066 47.8785 28.6836 45.6798 28.6836 43.4433H18.6836C18.6836 43.9595 18.5505 44.4668 18.2971 44.9165L27.0084 49.8268ZM28.6836 43.4433V27.9916H18.6836V43.4433H28.6836ZM28.6836 27.9916V26.6645H18.6836V27.9916H28.6836ZM17.1595 26.901C18.1 29.3336 20.2125 31.0689 22.7023 31.5673L24.6649 21.7617C25.4829 21.9255 26.1772 22.4945 26.4866 23.2948L17.1595 26.901ZM36.8164 22.9916H25.6836V32.9916H36.8164V22.9916ZM41.8164 43.4433V27.9916H31.8164V43.4433H41.8164ZM42.4607 45.8985C42.0383 45.1492 41.8164 44.3035 41.8164 43.4433H31.8164C31.8164 46.0239 32.4821 48.5609 33.7493 50.8089L42.4607 45.8985ZM58.0744 73.5985L42.4607 45.8985L33.7493 50.8089L49.363 78.5089L58.0744 73.5985ZM48.4919 89.9999C56.9093 89.9999 62.2077 80.9312 58.0744 73.5985L49.363 78.5089C49.7388 79.1755 49.2571 79.9999 48.4919 79.9999V89.9999ZM14.0081 89.9999H48.4919V79.9999H14.0081V89.9999ZM4.42559 73.5985C0.29232 80.9313 5.59069 89.9999 14.0081 89.9999V79.9999C13.2429 79.9999 12.7612 79.1755 13.137 78.5089L4.42559 73.5985ZM20.0393 45.8985L4.42559 73.5985L13.137 78.5089L28.7507 50.8089L20.0393 45.8985ZM20.6836 43.4433C20.6836 44.3035 20.4617 45.1492 20.0393 45.8985L28.7507 50.8089C30.0179 48.5609 30.6836 46.0239 30.6836 43.4433H20.6836ZM20.6836 27.9916V43.4433H30.6836V27.9916H20.6836Z" fill="white" mask="url(#path-3-outside-1_4338_70999)"/>
<ellipse cx="29.985" cy="48.3734" rx="2.46071" ry="2.52697" fill="#365C84"/>
<ellipse cx="31.5669" cy="38.0852" rx="1.58189" ry="1.62448" fill="#365C84"/>
<ellipse cx="31.2154" cy="31.2262" rx="0.878825" ry="0.902492" fill="#365C84"/>
<ellipse cx="28.7547" cy="13.5375" rx="2.98801" ry="3.06847" fill="#365C84"/>
<ellipse cx="32.27" cy="1.98548" rx="1.93341" ry="1.98548" fill="#365C84"/>
</svg>
