<svg width="150" height="150" viewBox="0 0 150 150" fill="none" xmlns="http://www.w3.org/2000/svg">
<path d="M101.5 85.3125C94.1875 82.0625 85.1875 79.6875 75 79.6875C64.8125 79.6875 55.8125 82.125 48.5 85.3125C45.2066 86.7971 42.4144 89.2052 40.462 92.2448C38.5096 95.2843 37.4807 98.8249 37.5 102.438V112.5H112.5V102.438C112.5 95.0625 108.25 88.3125 101.5 85.3125ZM75 37.5C64.625 37.5 56.25 45.875 56.25 56.25C56.25 66.625 64.625 75 75 75C85.375 75 93.75 66.625 93.75 56.25C93.75 45.875 85.375 37.5 75 37.5Z" fill="#365C84"/>
<path d="M137.5 68.75C137.5 75.625 131.875 81.25 125 81.25C118.125 81.25 112.5 75.625 112.5 68.75C112.5 61.875 118.125 56.25 125 56.25C131.875 56.25 137.5 61.875 137.5 68.75Z" fill="#E6EBF0"/>
<path d="M142.375 91.125C147 93.125 150 97.625 150 102.688V112.5H121.875V102.438C121.875 97.25 120.438 92.375 117.938 88.125C120.25 87.75 122.562 87.5 125 87.5C130.979 87.4996 136.895 88.7337 142.375 91.125Z" fill="#E6EBF0"/>
<path d="M37.5 68.75C37.5 75.625 31.875 81.25 25 81.25C18.125 81.25 12.5 75.625 12.5 68.75C12.5 61.875 18.125 56.25 25 56.25C31.875 56.25 37.5 61.875 37.5 68.75Z" fill="#9BADC1"/>
<path d="M25 87.5C27.4375 87.5 29.75 87.75 32.0625 88.125C29.5625 92.375 28.125 97.25 28.125 102.438V112.5H4.80309e-06V102.688C-0.00214804 100.225 0.719455 97.8162 2.07511 95.7605C3.43077 93.7048 5.3607 92.0928 7.625 91.125C12.9375 88.8125 18.8125 87.5 25 87.5Z" fill="#9BADC1"/>
</svg>
