<svg width="38" height="21" viewBox="0 0 38 21" fill="none" xmlns="http://www.w3.org/2000/svg">
<path d="M8.44336 21V17.8213C8.44336 17.0322 8.63808 16.3164 9.02751 15.6739C9.41695 15.0314 9.95784 14.5523 10.6502 14.2367C12.2296 13.5153 13.6521 12.9968 14.9177 12.6812C16.1834 12.3655 17.487 12.2077 18.8283 12.2077C20.1697 12.2077 21.4679 12.3655 22.7227 12.6812C23.9776 12.9968 25.3947 13.5153 26.9741 14.2367C27.6664 14.5523 28.2127 15.0314 28.613 15.6739C29.0132 16.3164 29.2133 17.0322 29.2133 17.8213V21H8.44336ZM27.396 12.1063C28.8888 12.2866 30.2951 12.5515 31.6149 12.901C32.9346 13.2504 34.0056 13.6506 34.8277 14.1014C35.5417 14.5298 36.1042 15.0596 36.5153 15.6908C36.9263 16.3221 37.1319 17.0322 37.1319 17.8213V21H31.1605V17.8213C31.1605 16.401 30.8144 15.2343 30.122 14.3213C29.4297 13.4082 28.521 12.6699 27.396 12.1063ZM18.8283 10.1449C17.4004 10.1449 16.2321 9.6715 15.3234 8.72464C14.4147 7.77778 13.9604 6.56039 13.9604 5.07246C13.9604 3.58454 14.4147 2.36715 15.3234 1.42029C16.2321 0.47343 17.4004 0 18.8283 0C20.2563 0 21.4246 0.47343 22.3333 1.42029C23.242 2.36715 23.6963 3.58454 23.6963 5.07246C23.6963 6.56039 23.242 7.77778 22.3333 8.72464C21.4246 9.6715 20.2563 10.1449 18.8283 10.1449ZM30.5115 5.07246C30.5115 6.56039 30.0571 7.77778 29.1484 8.72464C28.2397 9.6715 27.0714 10.1449 25.6435 10.1449C25.4055 10.1449 25.1405 10.128 24.8484 10.0942C24.5563 10.0604 24.2913 9.99839 24.0533 9.90821C24.5725 9.34461 24.9674 8.65137 25.2378 7.8285C25.5083 7.00564 25.6435 6.08696 25.6435 5.07246C25.6435 4.05797 25.5083 3.16184 25.2378 2.38406C24.9674 1.60628 24.5725 0.890499 24.0533 0.236715C24.2913 0.169082 24.5563 0.112722 24.8484 0.0676331C25.1405 0.0225445 25.4055 0 25.6435 0C27.0714 0 28.2397 0.47343 29.1484 1.42029C30.0571 2.36715 30.5115 3.58454 30.5115 5.07246ZM10.3905 18.971H27.2661V17.8213C27.2661 17.4605 27.1634 17.1111 26.9578 16.7729C26.7523 16.4348 26.4981 16.1981 26.1952 16.0628C24.6374 15.3414 23.3285 14.8567 22.2684 14.6087C21.2082 14.3607 20.0616 14.2367 18.8283 14.2367C17.5951 14.2367 16.443 14.3607 15.3721 14.6087C14.3011 14.8567 12.9868 15.3414 11.429 16.0628C11.1261 16.1981 10.8773 16.4348 10.6826 16.7729C10.4879 17.1111 10.3905 17.4605 10.3905 17.8213V18.971ZM18.8283 8.11594C19.6721 8.11594 20.3699 7.8285 20.9216 7.25362C21.4733 6.67874 21.7491 5.95169 21.7491 5.07246C21.7491 4.19324 21.4733 3.46618 20.9216 2.8913C20.3699 2.31643 19.6721 2.02899 18.8283 2.02899C17.9846 2.02899 17.2868 2.31643 16.7351 2.8913C16.1834 3.46618 15.9076 4.19324 15.9076 5.07246C15.9076 5.95169 16.1834 6.67874 16.7351 7.25362C17.2868 7.8285 17.9846 8.11594 18.8283 8.11594Z" fill="#043365" fill-opacity="0.57"/>
<path d="M28.9336 21V17.8213C28.9336 17.0322 28.7389 16.3164 28.3494 15.6739C27.96 15.0314 27.4191 14.5523 26.7268 14.2367C25.1474 13.5153 23.7249 12.9968 22.4592 12.6812C21.1935 12.3655 19.89 12.2077 18.5486 12.2077C17.2072 12.2077 15.9091 12.3655 14.6542 12.6812C13.3994 12.9968 11.9823 13.5153 10.4029 14.2367C9.71055 14.5523 9.16426 15.0314 8.764 15.6739C8.36375 16.3164 8.16362 17.0322 8.16362 17.8213V21L28.9336 21ZM9.98099 12.1063C8.48815 12.2866 7.08185 12.5515 5.76209 12.901C4.44233 13.2504 3.37138 13.6506 2.54924 14.1014C1.83527 14.5298 1.27275 15.0596 0.861675 15.6908C0.450603 16.3221 0.24507 17.0322 0.24507 17.8213V21H6.21643V17.8213C6.21643 16.401 6.5626 15.2343 7.25493 14.3213C7.94727 13.4082 8.85595 12.6699 9.98099 12.1063ZM18.5486 10.1449C19.9765 10.1449 21.1449 9.6715 22.0535 8.72464C22.9622 7.77778 23.4166 6.56039 23.4166 5.07246C23.4166 3.58454 22.9622 2.36715 22.0535 1.42029C21.1449 0.47343 19.9765 0 18.5486 0C17.1207 0 15.9524 0.47343 15.0437 1.42029C14.135 2.36715 13.6806 3.58454 13.6806 5.07246C13.6806 6.56039 14.135 7.77778 15.0437 8.72464C15.9524 9.6715 17.1207 10.1449 18.5486 10.1449ZM6.8655 5.07246C6.8655 6.56039 7.31984 7.77778 8.22853 8.72464C9.13721 9.6715 10.3055 10.1449 11.7335 10.1449C11.9714 10.1449 12.2365 10.128 12.5286 10.0942C12.8206 10.0604 13.0857 9.99839 13.3237 9.90821C12.8044 9.34461 12.4096 8.65137 12.1391 7.8285C11.8687 7.00564 11.7335 6.08696 11.7335 5.07246C11.7335 4.05797 11.8687 3.16184 12.1391 2.38406C12.4096 1.60628 12.8044 0.890499 13.3237 0.236715C13.0857 0.169082 12.8206 0.112722 12.5286 0.0676331C12.2365 0.0225445 11.9714 0 11.7335 0C10.3055 0 9.13721 0.47343 8.22853 1.42029C7.31984 2.36715 6.8655 3.58454 6.8655 5.07246ZM26.9864 18.971L10.1108 18.971V17.8213C10.1108 17.4605 10.2136 17.1111 10.4191 16.7729C10.6246 16.4348 10.8789 16.1981 11.1818 16.0628C12.7395 15.3414 14.0484 14.8567 15.1086 14.6087C16.1687 14.3607 17.3154 14.2367 18.5486 14.2367C19.7818 14.2367 20.9339 14.3607 22.0049 14.6087C23.0758 14.8567 24.3902 15.3414 25.9479 16.0628C26.2508 16.1981 26.4996 16.4348 26.6943 16.7729C26.889 17.1111 26.9864 17.4605 26.9864 17.8213V18.971ZM18.5486 8.11594C17.7048 8.11594 17.0071 7.8285 16.4554 7.25362C15.9037 6.67874 15.6278 5.95169 15.6278 5.07246C15.6278 4.19324 15.9037 3.46618 16.4554 2.8913C17.0071 2.31643 17.7048 2.02899 18.5486 2.02899C19.3924 2.02899 20.0901 2.31643 20.6418 2.8913C21.1935 3.46618 21.4694 4.19324 21.4694 5.07246C21.4694 5.95169 21.1935 6.67874 20.6418 7.25362C20.0901 7.8285 19.3924 8.11594 18.5486 8.11594Z" fill="#043365"/>
</svg>
