<svg width="72" height="42" viewBox="0 0 72 42" fill="none" xmlns="http://www.w3.org/2000/svg">
<path d="M16 42V35.6425C16 34.0644 16.3801 32.6329 17.1403 31.3478C17.9005 30.0628 18.9563 29.1047 20.3077 28.4734C23.3906 27.0306 26.1674 25.9936 28.638 25.3623C31.1086 24.7311 33.6531 24.4155 36.2715 24.4155C38.8899 24.4155 41.4238 24.7311 43.8733 25.3623C46.3228 25.9936 49.089 27.0306 52.1719 28.4734C53.5234 29.1047 54.5897 30.0628 55.371 31.3478C56.1523 32.6329 56.543 34.0644 56.543 35.6425V42H16ZM52.9955 24.2126C55.9095 24.5733 58.6546 25.1031 61.2308 25.8019C63.8069 26.5008 65.8974 27.3011 67.5023 28.2029C68.8959 29.0596 69.994 30.1192 70.7964 31.3816C71.5988 32.6441 72 34.0644 72 35.6425V42H60.3439V35.6425C60.3439 32.8019 59.6682 30.4686 58.3167 28.6425C56.9653 26.8164 55.1916 25.3398 52.9955 24.2126ZM36.2715 20.2899C33.4842 20.2899 31.2036 19.343 29.4299 17.4493C27.6561 15.5556 26.7692 13.1208 26.7692 10.1449C26.7692 7.16908 27.6561 4.7343 29.4299 2.84058C31.2036 0.946861 33.4842 0 36.2715 0C39.0588 0 41.3394 0.946861 43.1131 2.84058C44.8869 4.7343 45.7738 7.16908 45.7738 10.1449C45.7738 13.1208 44.8869 15.5556 43.1131 17.4493C41.3394 19.343 39.0588 20.2899 36.2715 20.2899ZM59.0769 10.1449C59.0769 13.1208 58.19 15.5556 56.4163 17.4493C54.6425 19.343 52.362 20.2899 49.5747 20.2899C49.1101 20.2899 48.5928 20.256 48.0226 20.1884C47.4525 20.1208 46.9351 19.9968 46.4706 19.8164C47.4842 18.6892 48.2549 17.3027 48.7828 15.657C49.3107 14.0113 49.5747 12.1739 49.5747 10.1449C49.5747 8.11594 49.3107 6.32367 48.7828 4.76812C48.2549 3.21256 47.4842 1.781 46.4706 0.473431C46.9351 0.338165 47.4525 0.225443 48.0226 0.135266C48.5928 0.0450891 49.1101 0 49.5747 0C52.362 0 54.6425 0.946861 56.4163 2.84058C58.19 4.7343 59.0769 7.16908 59.0769 10.1449ZM19.8009 37.942H52.7421V35.6425C52.7421 34.9211 52.5415 34.2222 52.1403 33.5459C51.7391 32.8696 51.2428 32.3961 50.6516 32.1256C47.6109 30.6828 45.0558 29.7134 42.9864 29.2174C40.917 28.7214 38.6787 28.4734 36.2715 28.4734C33.8643 28.4734 31.6154 28.7214 29.5249 29.2174C27.4344 29.7134 24.8688 30.6828 21.8281 32.1256C21.2368 32.3961 20.7511 32.8696 20.371 33.5459C19.991 34.2222 19.8009 34.9211 19.8009 35.6425V37.942ZM36.2715 16.2319C37.9186 16.2319 39.2805 15.657 40.3575 14.5072C41.4344 13.3575 41.9729 11.9034 41.9729 10.1449C41.9729 8.38648 41.4344 6.93237 40.3575 5.78261C39.2805 4.63285 37.9186 4.05797 36.2715 4.05797C34.6244 4.05797 33.2624 4.63285 32.1855 5.78261C31.1086 6.93237 30.5701 8.38648 30.5701 10.1449C30.5701 11.9034 31.1086 13.3575 32.1855 14.5072C33.2624 15.657 34.6244 16.2319 36.2715 16.2319Z" fill="#043365" fill-opacity="0.57"/>
<path d="M56 42V35.6425C56 34.0644 55.6199 32.6329 54.8597 31.3478C54.0995 30.0628 53.0437 29.1047 51.6923 28.4734C48.6094 27.0306 45.8326 25.9936 43.362 25.3623C40.8914 24.7311 38.3469 24.4155 35.7285 24.4155C33.1101 24.4155 30.5762 24.7311 28.1267 25.3623C25.6772 25.9936 22.911 27.0306 19.8281 28.4734C18.4766 29.1047 17.4103 30.0628 16.629 31.3478C15.8477 32.6329 15.457 34.0644 15.457 35.6425V42L56 42ZM19.0045 24.2126C16.0905 24.5733 13.3454 25.1031 10.7692 25.8019C8.19306 26.5008 6.10256 27.3011 4.49773 28.2029C3.10407 29.0596 2.00603 30.1192 1.20361 31.3816C0.401199 32.6441 0 34.0644 0 35.6425V42H11.6561V35.6425C11.6561 32.8019 12.3318 30.4686 13.6833 28.6425C15.0347 26.8164 16.8084 25.3398 19.0045 24.2126ZM35.7285 20.2899C38.5158 20.2899 40.7964 19.343 42.5701 17.4493C44.3439 15.5556 45.2308 13.1208 45.2308 10.1449C45.2308 7.16908 44.3439 4.7343 42.5701 2.84058C40.7964 0.946861 38.5158 0 35.7285 0C32.9412 0 30.6606 0.946861 28.8869 2.84058C27.1131 4.7343 26.2262 7.16908 26.2262 10.1449C26.2262 13.1208 27.1131 15.5556 28.8869 17.4493C30.6606 19.343 32.9412 20.2899 35.7285 20.2899ZM12.9231 10.1449C12.9231 13.1208 13.81 15.5556 15.5837 17.4493C17.3575 19.343 19.638 20.2899 22.4253 20.2899C22.8899 20.2899 23.4072 20.256 23.9774 20.1884C24.5475 20.1208 25.0649 19.9968 25.5294 19.8164C24.5158 18.6892 23.7451 17.3027 23.2172 15.657C22.6893 14.0113 22.4253 12.1739 22.4253 10.1449C22.4253 8.11594 22.6893 6.32367 23.2172 4.76812C23.7451 3.21256 24.5158 1.781 25.5294 0.473431C25.0649 0.338165 24.5475 0.225443 23.9774 0.135266C23.4072 0.0450891 22.8899 0 22.4253 0C19.638 0 17.3575 0.946861 15.5837 2.84058C13.81 4.7343 12.9231 7.16908 12.9231 10.1449ZM52.1991 37.942L19.2579 37.942V35.6425C19.2579 34.9211 19.4585 34.2222 19.8597 33.5459C20.2609 32.8696 20.7572 32.3961 21.3484 32.1256C24.3891 30.6828 26.9442 29.7134 29.0136 29.2174C31.083 28.7214 33.3213 28.4734 35.7285 28.4734C38.1357 28.4734 40.3846 28.7214 42.4751 29.2174C44.5656 29.7134 47.1312 30.6828 50.1719 32.1256C50.7632 32.3961 51.2489 32.8696 51.629 33.5459C52.009 34.2222 52.1991 34.9211 52.1991 35.6425V37.942ZM35.7285 16.2319C34.0814 16.2319 32.7195 15.657 31.6425 14.5072C30.5656 13.3575 30.0271 11.9034 30.0271 10.1449C30.0271 8.38648 30.5656 6.93237 31.6425 5.78261C32.7195 4.63285 34.0814 4.05797 35.7285 4.05797C37.3756 4.05797 38.7376 4.63285 39.8145 5.78261C40.8914 6.93237 41.4299 8.38648 41.4299 10.1449C41.4299 11.9034 40.8914 13.3575 39.8145 14.5072C38.7376 15.657 37.3756 16.2319 35.7285 16.2319Z" fill="#043365"/>
</svg>
