<?xml version="1.0" encoding="utf-8"?>
<!-- Generator: Adobe Illustrator 24.0.2, SVG Export Plug-In . SVG Version: 6.00 Build 0)  -->
<svg version="1.1" id="Layer_1" xmlns="http://www.w3.org/2000/svg" xmlns:xlink="http://www.w3.org/1999/xlink" x="0px" y="0px"
	 viewBox="0 0 841.9 700" style="enable-background:new 0 0 841.9 700;" xml:space="preserve">
<style type="text/css">
	.st0{fill:#B7B7B7;}
</style>
<g>
	<path class="st0" d="M311.8,577.8c-52,0-94.2-14.9-94.2-33.4v34.9c0,18.4,42.2,33.4,94.2,33.4s94.2-14.9,94.2-33.4v-34.9
		C406,562.9,363.8,577.8,311.8,577.8z"/>
	<path class="st0" d="M373.1,437v-54.1l0,0l0,0v-28.4h32l-43-39.9v-39.4h-18.3v22.4l-32.1-29.9l-93.3,86.9h32V437
		c-20.2,6.1-32.9,15.2-32.9,25.3c0,18.4,42.2,33.4,94.2,33.4s94.2-14.9,94.2-33.4C406,452.2,393.2,443.1,373.1,437z"/>
	<path class="st0" d="M311.8,519.3c-52,0-94.2-14.9-94.2-33.4v34.9c0,18.4,42.2,33.4,94.2,33.4s94.2-14.9,94.2-33.4v-34.9
		C406,504.4,363.8,519.3,311.8,519.3z"/>
	<path class="st0" d="M311.8,639.5c-52,0-94.2-14.9-94.2-33.4V641c0,18.4,42.2,33.4,94.2,33.4S406,659.5,406,641v-34.9
		C406,624.6,363.8,639.5,311.8,639.5z"/>
	<path class="st0" d="M530.2,577.8c-52,0-94.2-14.9-94.2-33.4v34.9c0,18.4,42.2,33.4,94.2,33.4s94.2-14.9,94.2-33.4v-34.9
		C624.3,562.9,582.2,577.8,530.2,577.8z"/>
	<path class="st0" d="M530.2,519.3c-52,0-94.2-14.9-94.2-33.4v34.9c0,18.4,42.2,33.4,94.2,33.4s94.2-14.9,94.2-33.4v-34.9
		C624.3,504.4,582.2,519.3,530.2,519.3z"/>
	<path class="st0" d="M530.2,460.8c-52,0-94.2-14.9-94.2-33.4v34.9c0,18.4,42.2,33.4,94.2,33.4s94.2-14.9,94.2-33.4v-34.9
		C624.3,445.8,582.2,460.8,530.2,460.8z"/>
	<path class="st0" d="M591.5,320v-50.2v-0.1l0,0v-33h31.4l-42.4-39.4v-39.4h-18.3v22.4l-32.1-29.9l-92.7,86.3h31.4v83.2
		c-20.2,6.1-32.9,15.2-32.9,25.4c0,18.4,42.2,33.4,94.2,33.4s94.2-14.9,94.2-33.4C624.3,335.2,611.6,326.1,591.5,320z"/>
	<path class="st0" d="M530.2,402.3c-52,0-94.2-14.9-94.2-33.4v34.9c0,18.4,42.2,33.4,94.2,33.4s94.2-14.9,94.2-33.4v-34.9
		C624.3,387.3,582.2,402.3,530.2,402.3z"/>
	<path class="st0" d="M530.2,639.5c-52,0-94.2-14.9-94.2-33.4V641c0,18.4,42.2,33.4,94.2,33.4s94.2-14.9,94.2-33.4v-34.9
		C624.3,624.6,582.2,639.5,530.2,639.5z"/>
	<path class="st0" d="M748.5,577.8c-52,0-94.2-14.9-94.2-33.4v34.9c0,18.4,42.2,33.4,94.2,33.4s94.2-14.9,94.2-33.4v-34.9l0,0
		C842.6,562.9,800.5,577.8,748.5,577.8z"/>
	<path class="st0" d="M748.5,519.3c-52,0-94.2-14.9-94.2-33.4v34.9c0,18.4,42.2,33.4,94.2,33.4s94.2-14.9,94.2-33.4v-34.9l0,0
		C842.6,504.4,800.5,519.3,748.5,519.3z"/>
	<path class="st0" d="M748.5,460.8c-52,0-94.2-14.9-94.2-33.4v34.9c0,18.4,42.2,33.4,94.2,33.4s94.2-14.9,94.2-33.4v-34.9l0,0
		C842.6,445.8,800.5,460.8,748.5,460.8z"/>
	<path class="st0" d="M748.5,402.3c-52,0-94.2-14.9-94.2-33.4v34.9c0,18.4,42.2,33.4,94.2,33.4s94.2-14.9,94.2-33.4v-34.9l0,0
		C842.6,387.3,800.5,402.3,748.5,402.3z"/>
	<path class="st0" d="M748.5,343.8c-52,0-94.2-14.9-94.2-33.4v34.9c0,18.4,42.2,33.4,94.2,33.4s94.2-14.9,94.2-33.4v-34.9l0,0
		C842.6,328.8,800.5,343.8,748.5,343.8z"/>
	<path class="st0" d="M654.3,228.3c0,18.4,42.2,33.4,94.2,33.4s94.2-14.9,94.2-33.4c0-10.1-12.7-19.2-32.8-25.3v-46.5l0,0l0,0v-35.3
		h32.6L799,80.7V41.3h-18.3v22.4l-32.1-29.9l-93.9,87.4h32.6V203C667.1,209,654.3,218.1,654.3,228.3z"/>
	<path class="st0" d="M842.6,251.9c0,18.4-42.1,33.4-94.2,33.4c-52,0-94.2-14.9-94.2-33.4v34.9c0,18.4,42.2,33.4,94.2,33.4
		s94.2-14.9,94.2-33.4V251.9L842.6,251.9z"/>
	<path class="st0" d="M748.5,639.5c-52,0-94.2-14.9-94.2-33.4V641c0,18.4,42.2,33.4,94.2,33.4s94.2-14.9,94.2-33.4v-34.9l0,0
		C842.6,624.6,800.5,639.5,748.5,639.5z"/>
	<path class="st0" d="M154.8,557.2v-39.4l0,0v-43.6h31.8l-42.7-39.7v-39.4h-18.3v22.4l-32.1-29.9l-93,86.7h31.8v82.9
		C12,563.3-0.8,572.4-0.8,582.5c0,18.5,42.2,33.4,94.2,33.4s94.2-14.9,94.2-33.4C187.6,572.4,174.9,563.4,154.8,557.2z"/>
	<path class="st0" d="M93.4,639.5c-52,0-94.2-14.9-94.2-33.4V641c0,18.4,42.2,33.4,94.2,33.4s94.2-14.9,94.2-33.4v-34.9
		C187.6,624.6,145.4,639.5,93.4,639.5z"/>
</g>
</svg>
