<svg width="25" height="19" viewBox="0 0 25 19" fill="none" xmlns="http://www.w3.org/2000/svg">
<path d="M12.0078 8.0625V10.3945H2.94922V8.0625H12.0078ZM3.67578 0.9375V18H0.734375V0.9375H3.67578ZM14.2695 0.9375V18H11.3398V0.9375H14.2695ZM24.3125 11.3594V13.2188C24.3125 14.1094 24.224 14.8698 24.0469 15.5C23.875 16.125 23.625 16.6328 23.2969 17.0234C22.9688 17.4141 22.5755 17.7005 22.1172 17.8828C21.6641 18.0651 21.1562 18.1562 20.5938 18.1562C20.1458 18.1562 19.7292 18.099 19.3438 17.9844C18.9635 17.8698 18.6198 17.6901 18.3125 17.4453C18.0052 17.2005 17.7422 16.8854 17.5234 16.5C17.3099 16.1094 17.1432 15.6432 17.0234 15.1016C16.9089 14.5599 16.8516 13.9323 16.8516 13.2188V11.3594C16.8516 10.4635 16.9401 9.70833 17.1172 9.09375C17.2943 8.47396 17.5469 7.97135 17.875 7.58594C18.2031 7.19531 18.5938 6.91146 19.0469 6.73438C19.5052 6.55729 20.0156 6.46875 20.5781 6.46875C21.0312 6.46875 21.4479 6.52604 21.8281 6.64062C22.2135 6.75 22.5573 6.92448 22.8594 7.16406C23.1667 7.40365 23.4271 7.71615 23.6406 8.10156C23.8594 8.48177 24.026 8.94271 24.1406 9.48438C24.2552 10.0208 24.3125 10.6458 24.3125 11.3594ZM22.4297 13.4844V11.0781C22.4297 10.625 22.4036 10.2266 22.3516 9.88281C22.2995 9.53385 22.2214 9.23958 22.1172 9C22.0182 8.75521 21.8932 8.55729 21.7422 8.40625C21.5911 8.25 21.4193 8.13802 21.2266 8.07031C21.0339 7.9974 20.8177 7.96094 20.5781 7.96094C20.2865 7.96094 20.026 8.01823 19.7969 8.13281C19.5677 8.24219 19.375 8.41927 19.2188 8.66406C19.0625 8.90885 18.9427 9.23177 18.8594 9.63281C18.7812 10.0286 18.7422 10.5104 18.7422 11.0781V13.4844C18.7422 13.9427 18.7682 14.3464 18.8203 14.6953C18.8724 15.0443 18.9505 15.3438 19.0547 15.5938C19.1589 15.8385 19.2839 16.0417 19.4297 16.2031C19.5807 16.3594 19.7526 16.474 19.9453 16.5469C20.1432 16.6198 20.3594 16.6562 20.5938 16.6562C20.8906 16.6562 21.1536 16.599 21.3828 16.4844C21.612 16.3698 21.8047 16.1875 21.9609 15.9375C22.1172 15.6823 22.2344 15.3516 22.3125 14.9453C22.3906 14.5391 22.4297 14.0521 22.4297 13.4844Z" fill="black"/>
</svg>
