<svg width="32" height="21" viewBox="0 0 32 21" fill="none" xmlns="http://www.w3.org/2000/svg">
<path d="M14.332 10V8.48631C14.332 8.11057 14.2415 7.76973 14.0605 7.46377C13.8795 7.15781 13.6282 6.92968 13.3064 6.77939C12.5724 6.43586 11.9112 6.18894 11.323 6.03865C10.7347 5.88835 10.1289 5.8132 9.50549 5.8132C8.88206 5.8132 8.27874 5.88835 7.69553 6.03865C7.11232 6.18894 6.4537 6.43586 5.71966 6.77939C5.39789 6.92968 5.144 7.15781 4.95797 7.46377C4.77195 7.76973 4.67894 8.11057 4.67894 8.48631V10L14.332 10ZM5.52358 5.7649C4.82977 5.85078 4.17617 5.97692 3.5628 6.14332C2.94943 6.30972 2.45169 6.50027 2.06959 6.71498C1.73776 6.91895 1.47632 7.17123 1.28527 7.47182C1.09422 7.77241 0.998698 8.11057 0.998698 8.48631V10L3.77396 10V8.48631C3.77396 7.80998 3.93485 7.25443 4.25662 6.81965C4.57839 6.38486 5.00071 6.03328 5.52358 5.7649ZM9.50549 4.83092C10.1691 4.83092 10.7121 4.60548 11.1344 4.15459C11.5568 3.7037 11.7679 3.12399 11.7679 2.41546C11.7679 1.70692 11.5568 1.12721 11.1344 0.676329C10.7121 0.225443 10.1691 0 9.50549 0C8.84183 0 8.29885 0.225443 7.87653 0.676329C7.4542 1.12721 7.24304 1.70692 7.24304 2.41546C7.24304 3.12399 7.4542 3.7037 7.87653 4.15459C8.29885 4.60548 8.84183 4.83092 9.50549 4.83092ZM4.07562 2.41546C4.07562 3.12399 4.28678 3.7037 4.7091 4.15459C5.13143 4.60548 5.67441 4.83092 6.33806 4.83092C6.44867 4.83092 6.57185 4.82287 6.7076 4.80676C6.84334 4.79066 6.96652 4.76114 7.07713 4.7182C6.8358 4.44981 6.65229 4.1197 6.5266 3.72786C6.40091 3.33602 6.33806 2.89855 6.33806 2.41546C6.33806 1.93237 6.40091 1.50564 6.5266 1.13527C6.65229 0.764895 6.8358 0.424047 7.07713 0.112722C6.96652 0.0805154 6.84334 0.053677 6.7076 0.0322062C6.57185 0.0107355 6.44867 0 6.33806 0C5.67441 0 5.13143 0.225443 4.7091 0.676329C4.28678 1.12721 4.07562 1.70692 4.07562 2.41546ZM13.4271 9.03382L5.58392 9.03382V8.48631C5.58392 8.31455 5.63168 8.14815 5.7272 7.98712C5.82273 7.82609 5.94088 7.71337 6.08165 7.64895C6.80564 7.30542 7.41398 7.07461 7.90669 6.95652C8.3994 6.83843 8.93233 6.77939 9.50549 6.77939C10.0786 6.77939 10.6141 6.83843 11.1118 6.95652C11.6096 7.07461 12.2204 7.30542 12.9444 7.64895C13.0852 7.71337 13.2008 7.82609 13.2913 7.98712C13.3818 8.14815 13.4271 8.31455 13.4271 8.48631V9.03382ZM9.50549 3.86473C9.11333 3.86473 8.78904 3.72786 8.53263 3.45411C8.27622 3.18035 8.14802 2.83414 8.14802 2.41546C8.14802 1.99678 8.27622 1.65056 8.53263 1.37681C8.78904 1.10306 9.11333 0.966184 9.50549 0.966184C9.89764 0.966184 10.2219 1.10306 10.4783 1.37681C10.7347 1.65056 10.863 1.99678 10.863 2.41546C10.863 2.83414 10.7347 3.18035 10.4783 3.45411C10.2219 3.72786 9.89764 3.86473 9.50549 3.86473Z" fill="#043365"/>
<path d="M31.3438 10V8.48631C31.3438 8.11057 31.2533 7.76973 31.0723 7.46377C30.8913 7.15781 30.6399 6.92968 30.3181 6.77939C29.5841 6.43586 28.9229 6.18894 28.3347 6.03865C27.7465 5.88835 27.1406 5.8132 26.5172 5.8132C25.8938 5.8132 25.2905 5.88835 24.7072 6.03865C24.124 6.18894 23.4654 6.43586 22.7314 6.77939C22.4096 6.92968 22.1557 7.15781 21.9697 7.46377C21.7837 7.76973 21.6907 8.11057 21.6907 8.48631V10L31.3438 10ZM22.5353 5.7649C21.8415 5.85078 21.1879 5.97692 20.5745 6.14332C19.9611 6.30972 19.4634 6.50027 19.0813 6.71498C18.7495 6.91895 18.488 7.17123 18.297 7.47182C18.1059 7.77241 18.0104 8.11057 18.0104 8.48631V10L20.7857 10V8.48631C20.7857 7.80998 20.9466 7.25443 21.2683 6.81965C21.5901 6.38486 22.0124 6.03328 22.5353 5.7649ZM26.5172 4.83092C27.1809 4.83092 27.7238 4.60548 28.1462 4.15459C28.5685 3.7037 28.7796 3.12399 28.7796 2.41546C28.7796 1.70692 28.5685 1.12721 28.1462 0.676329C27.7238 0.225443 27.1809 0 26.5172 0C25.8536 0 25.3106 0.225443 24.8882 0.676329C24.4659 1.12721 24.2548 1.70692 24.2548 2.41546C24.2548 3.12399 24.4659 3.7037 24.8882 4.15459C25.3106 4.60548 25.8536 4.83092 26.5172 4.83092ZM21.0873 2.41546C21.0873 3.12399 21.2985 3.7037 21.7208 4.15459C22.1431 4.60548 22.6861 4.83092 23.3498 4.83092C23.4604 4.83092 23.5836 4.82287 23.7193 4.80676C23.8551 4.79066 23.9782 4.76114 24.0888 4.7182C23.8475 4.44981 23.664 4.1197 23.5383 3.72786C23.4126 3.33602 23.3498 2.89855 23.3498 2.41546C23.3498 1.93237 23.4126 1.50564 23.5383 1.13527C23.664 0.764895 23.8475 0.424047 24.0888 0.112722C23.9782 0.0805154 23.8551 0.053677 23.7193 0.0322062C23.5836 0.0107355 23.4604 0 23.3498 0C22.6861 0 22.1431 0.225443 21.7208 0.676329C21.2985 1.12721 21.0873 1.70692 21.0873 2.41546ZM30.4388 9.03382L22.5956 9.03382V8.48631C22.5956 8.31455 22.6434 8.14815 22.7389 7.98712C22.8344 7.82609 22.9526 7.71337 23.0934 7.64895C23.8174 7.30542 24.4257 7.07461 24.9184 6.95652C25.4111 6.83843 25.9441 6.77939 26.5172 6.77939C27.0904 6.77939 27.6258 6.83843 28.1235 6.95652C28.6213 7.07461 29.2321 7.30542 29.9561 7.64895C30.0969 7.71337 30.2125 7.82609 30.303 7.98712C30.3935 8.14815 30.4388 8.31455 30.4388 8.48631V9.03382ZM26.5172 3.86473C26.125 3.86473 25.8008 3.72786 25.5444 3.45411C25.2879 3.18035 25.1597 2.83414 25.1597 2.41546C25.1597 1.99678 25.2879 1.65056 25.5444 1.37681C25.8008 1.10306 26.125 0.966184 26.5172 0.966184C26.9094 0.966184 27.2336 1.10306 27.4901 1.37681C27.7465 1.65056 27.8747 1.99678 27.8747 2.41546C27.8747 2.83414 27.7465 3.18035 27.4901 3.45411C27.2336 3.72786 26.9094 3.86473 26.5172 3.86473Z" fill="#043365"/>
<path d="M22.332 21V19.4863C22.332 19.1106 22.2415 18.7697 22.0605 18.4638C21.8795 18.1578 21.6282 17.9297 21.3064 17.7794C20.5724 17.4359 19.9112 17.1889 19.323 17.0386C18.7347 16.8884 18.1289 16.8132 17.5055 16.8132C16.8821 16.8132 16.2787 16.8884 15.6955 17.0386C15.1123 17.1889 14.4537 17.4359 13.7197 17.7794C13.3979 17.9297 13.144 18.1578 12.958 18.4638C12.772 18.7697 12.6789 19.1106 12.6789 19.4863V21H22.332ZM13.5236 16.7649C12.8298 16.8508 12.1762 16.9769 11.5628 17.1433C10.9494 17.3097 10.4517 17.5003 10.0696 17.715C9.73776 17.9189 9.47632 18.1712 9.28527 18.4718C9.09422 18.7724 8.9987 19.1106 8.9987 19.4863V21L11.774 21V19.4863C11.774 18.81 11.9348 18.2544 12.2566 17.8196C12.5784 17.3849 13.0007 17.0333 13.5236 16.7649ZM17.5055 15.8309C18.1691 15.8309 18.7121 15.6055 19.1344 15.1546C19.5568 14.7037 19.7679 14.124 19.7679 13.4155C19.7679 12.7069 19.5568 12.1272 19.1344 11.6763C18.7121 11.2254 18.1691 11 17.5055 11C16.8418 11 16.2988 11.2254 15.8765 11.6763C15.4542 12.1272 15.243 12.7069 15.243 13.4155C15.243 14.124 15.4542 14.7037 15.8765 15.1546C16.2988 15.6055 16.8418 15.8309 17.5055 15.8309ZM12.0756 13.4155C12.0756 14.124 12.2868 14.7037 12.7091 15.1546C13.1314 15.6055 13.6744 15.8309 14.3381 15.8309C14.4487 15.8309 14.5718 15.8229 14.7076 15.8068C14.8433 15.7907 14.9665 15.7611 15.0771 15.7182C14.8358 15.4498 14.6523 15.1197 14.5266 14.7279C14.4009 14.336 14.3381 13.8986 14.3381 13.4155C14.3381 12.9324 14.4009 12.5056 14.5266 12.1353C14.6523 11.7649 14.8358 11.424 15.0771 11.1127C14.9665 11.0805 14.8433 11.0537 14.7076 11.0322C14.5718 11.0107 14.4487 11 14.3381 11C13.6744 11 13.1314 11.2254 12.7091 11.6763C12.2868 12.1272 12.0756 12.7069 12.0756 13.4155ZM21.4271 20.0338H13.5839V19.4863C13.5839 19.3145 13.6317 19.1481 13.7272 18.9871C13.8227 18.8261 13.9409 18.7134 14.0817 18.649C14.8056 18.3054 15.414 18.0746 15.9067 17.9565C16.3994 17.8384 16.9323 17.7794 17.5055 17.7794C18.0786 17.7794 18.6141 17.8384 19.1118 17.9565C19.6096 18.0746 20.2204 18.3054 20.9444 18.649C21.0852 18.7134 21.2008 18.8261 21.2913 18.9871C21.3818 19.1481 21.4271 19.3145 21.4271 19.4863V20.0338ZM17.5055 14.8647C17.1133 14.8647 16.789 14.7279 16.5326 14.4541C16.2762 14.1804 16.148 13.8341 16.148 13.4155C16.148 12.9968 16.2762 12.6506 16.5326 12.3768C16.789 12.1031 17.1133 11.9662 17.5055 11.9662C17.8976 11.9662 18.2219 12.1031 18.4783 12.3768C18.7347 12.6506 18.863 12.9968 18.863 13.4155C18.863 13.8341 18.7347 14.1804 18.4783 14.4541C18.2219 14.7279 17.8976 14.8647 17.5055 14.8647Z" fill="#043365"/>
</svg>
