<svg width="49" height="51" viewBox="0 0 49 51" fill="none" xmlns="http://www.w3.org/2000/svg">
<path d="M26.6467 25.6624L26.6563 25.648L41.8376 4.07392L40.6398 3.15039L23.4149 23.3662C23.2609 23.575 23.1496 23.8121 23.0872 24.0639C23.0249 24.3158 23.0127 24.5775 23.0515 24.834C23.0902 25.0906 23.1791 25.337 23.3131 25.5592C23.4471 25.7813 23.6236 25.975 23.8324 26.129C24.0412 26.283 24.2783 26.3943 24.5302 26.4567C24.782 26.5191 25.0437 26.5312 25.3002 26.4924C25.8184 26.4142 26.2842 26.1332 26.5952 25.7115L26.6467 25.6624Z" fill="#323E48"/>
<g opacity="0.5">
<g opacity="0.5">
<path d="M5.788 29.0729C5.9992 30.4946 6.36966 31.8881 6.8924 33.227L3.59357 36.1269L5.62989 39.6545L9.78637 38.2495C10.6856 39.3735 11.7068 40.3944 12.8313 41.2932L11.4238 45.4508L14.955 47.4872L17.8514 44.1895C19.1911 44.7122 20.5854 45.0827 22.0078 45.2939L22.8703 49.6061H26.9429L27.803 45.2939C29.2257 45.082 30.6203 44.7116 31.9606 44.1895L34.8582 47.4872L38.387 45.4508L36.9795 41.2956C38.1043 40.3962 39.1255 39.3746 40.0244 38.2495L44.1941 39.6569L46.2304 36.1257L42.9316 33.2306C43.454 31.8907 43.8244 30.4965 44.036 29.0741L48.3482 28.2105V26.2676H36.4896C36.4896 29.3383 35.2698 32.2833 33.0984 34.4546C30.9271 36.626 27.9821 37.8458 24.9114 37.8458C21.8406 37.8458 18.8957 36.626 16.7243 34.4546C14.553 32.2833 13.3331 29.3383 13.3331 26.2676H1.47461V28.2117L5.788 29.0729Z" fill="#043365"/>
</g>
</g>
<path d="M5.7841 29.0729C5.99529 30.4946 6.36576 31.8881 6.8885 33.227L3.58967 36.1269L5.62598 39.6545L9.78246 38.2495C10.6817 39.3735 11.7029 40.3944 12.8274 41.2932L11.4199 45.4508L14.9511 47.4872L17.8475 44.1895C19.1872 44.7122 20.5814 45.0827 22.0039 45.2939L22.8664 49.6061H26.939L27.7991 45.2939C29.2218 45.082 30.6164 44.7116 31.9567 44.1895L34.8543 47.4872L38.3831 45.4508L36.9756 41.2956C38.1004 40.3962 39.1216 39.3746 40.0205 38.2495L44.1902 39.6569L46.2265 36.1257L42.9277 33.2306C43.4501 31.8907 43.8205 30.4965 44.0321 29.0741L48.3443 28.2105V26.2676H36.4857C36.4857 29.3383 35.2659 32.2833 33.0945 34.4546C30.9232 36.626 27.9782 37.8458 24.9075 37.8458C21.8367 37.8458 18.8918 36.626 16.7204 34.4546C14.5491 32.2833 13.3292 29.3383 13.3292 26.2676H1.4707V28.2117L5.7841 29.0729Z" stroke="#323E48" stroke-miterlimit="10"/>
<path d="M8.17231 22.2892L5.57422 22.0676C5.61335 21.606 5.66965 21.144 5.74311 20.6817L8.31845 21.0889C8.25536 21.4882 8.20665 21.8875 8.17231 22.2868V22.2892ZM41.7835 21.6627C41.7332 21.2602 41.6709 20.8614 41.593 20.4649L44.1516 19.9642C44.2402 20.4194 44.3133 20.8789 44.3708 21.3429L41.7835 21.6627ZM9.73788 16.4761L7.38055 15.3621C7.58099 14.9397 7.795 14.526 8.02259 14.1212L10.2925 15.3992C10.096 15.749 9.91037 16.106 9.73788 16.4773V16.4761ZM39.9987 15.9131C39.8118 15.5546 39.6122 15.2032 39.3998 14.859L41.6206 13.4947C41.8601 13.894 42.0893 14.2984 42.3081 14.7081L39.9987 15.9131ZM13.2391 11.5842L11.4268 9.71195C11.7606 9.39253 12.106 9.08109 12.4629 8.77764L14.1399 10.7732C13.8309 11.0328 13.531 11.3035 13.2403 11.5854L13.2391 11.5842ZM18.2353 8.23143L17.1956 5.84176C17.6196 5.6557 18.0508 5.4848 18.4892 5.32909L19.3637 7.78464C18.9815 7.91999 18.6066 8.06972 18.2353 8.23143ZM31.2042 7.99187C30.8313 7.84413 30.4512 7.71037 30.0639 7.59059L30.8389 5.1015C31.2857 5.24164 31.7253 5.39497 32.1565 5.56506L31.2042 7.99187ZM24.0915 6.83716L23.9478 4.23187C24.2951 4.21271 24.6437 4.20312 24.9935 4.20312H25.342L25.3013 6.80961H24.9935C24.6916 6.80961 24.3946 6.81799 24.0915 6.83476" fill="#323E48"/>
<path d="M24.906 0C12.2928 0 1.92081 9.74676 0.90625 22.1036H2.21428C3.22525 10.4667 13.0127 1.30324 24.906 1.30324C28.9985 1.30336 33.0142 2.4141 36.525 4.51702L37.3862 3.51803C33.6298 1.21767 29.3108 0.000174999 24.906 0Z" fill="#323E48"/>
<path d="M48.9059 22.1024C48.4424 16.5389 46.0553 11.3107 42.1549 7.31641L41.3164 8.33456C44.9247 12.0696 47.1427 16.9293 47.6002 22.1024H48.9059Z" fill="#323E48"/>
</svg>
