<svg height="512pt" viewBox="-4 0 512 512" width="512pt" xmlns="http://www.w3.org/2000/svg"><path d="m196.265625 307.199219h85.335937v-85.332031h-85.335937zm17.066406-68.265625h51.203125v17.066406h-51.203125zm0 34.132812h51.203125v17.066406h-51.203125zm0 0"/><path d="m230.398438 187.734375h17.070312v17.066406h-17.070312zm0 0"/><path d="m230.398438 324.265625h17.070312v17.066406h-17.070312zm0 0"/><path d="m298.667969 247.464844h17.066406v17.066406h-17.066406zm0 0"/><path d="m162.132812 247.464844h17.066407v17.066406h-17.066407zm0 0"/><path d="m110.933594 213.332031h-22.066406l19.566406-19.566406c3.273437-3.390625 3.179687-8.792969-.210938-12.066406-3.304687-3.191407-8.546875-3.191407-11.855468 0l-28.101563 28.101562-28.097656-28.101562c-3.390625-3.273438-8.792969-3.179688-12.066407.210937-3.195312 3.308594-3.195312 8.550782 0 11.855469l19.566407 19.566406h-30.601563c-9.425781 0-17.066406 7.640625-17.066406 17.066407v93.867187c0 9.425781 7.640625 17.066406 17.066406 17.066406h93.867188c9.425781 0 17.066406-7.640625 17.066406-17.066406v-93.867187c0-9.425782-7.640625-17.066407-17.066406-17.066407zm0 110.933594h-93.867188v-17.066406h93.867188zm0-34.132813h-93.867188v-59.734374h93.867188zm0 0"/><path d="m204.800781 93.867188h68.265625v17.066406h-68.265625zm0 0"/><path d="m204.800781 119.464844h68.265625v17.070312h-68.265625zm0 0"/><path d="m273.066406 34.132812h-68.265625v51.199219h68.265625zm-17.066406 34.132813h-34.132812v-17.066406h34.132812zm0 0"/><path d="m170.667969 145.066406c0 14.136719 11.460937 25.601563 25.597656 25.601563h110.933594c18.851562 0 34.132812-15.285157 34.132812-34.136719v-76.796875h-34.132812v-42.667969c0-9.425781-7.640625-17.066406-17.066407-17.066406h-102.398437c-9.425781 0-17.066406 7.640625-17.066406 17.066406zm136.53125-68.265625h17.066406v59.730469c0 9.425781-7.640625 17.070312-17.066406 17.070312zm-119.464844-59.734375h102.398437v136.535156h-93.867187c-4.710937 0-8.53125-3.820312-8.53125-8.535156zm0 0"/><path d="m452.265625 264.53125h17.066406v17.070312h-17.066406zm0 0"/><path d="m418.132812 264.53125h17.066407v17.070312h-17.066407zm0 0"/><path d="m384 264.53125h17.066406v17.070312h-17.066406zm0 0"/><path d="m503.464844 315.734375v-102.402344c0-9.425781-7.640625-17.066406-17.066406-17.066406h-119.464844c-9.425782 0-17.066406 7.640625-17.066406 17.066406v102.402344c0 14.136719 11.460937 25.597656 25.597656 25.597656h102.402344c14.136718 0 25.597656-11.460937 25.597656-25.597656zm-17.066406 0c0 4.710937-3.820313 8.53125-8.53125 8.53125h-102.402344c-4.710938 0-8.53125-3.820313-8.53125-8.53125v-68.269531h119.464844zm0-85.335937h-119.464844v-17.066407h119.464844zm0 0"/><path d="m187.734375 460.800781v51.199219h102.398437v-51.199219c-.039062-13.320312-7.820312-25.402343-19.933593-30.941406 15.914062-17.328125 14.765625-44.277344-2.5625-60.191406-17.328125-15.910157-44.277344-14.765625-60.1875 2.566406-14.289063 15.558594-15.015625 39.238281-1.710938 55.644531.589844.726563 1.316407 1.289063 1.9375 1.96875-12.117187 5.542969-19.90625 17.628906-19.941406 30.953125zm35.105469-79.652343c10.996094-8.886719 27.113281-7.179688 36.003906 3.816406 8.886719 10.996094 7.179688 27.113281-3.816406 36-10.996094 8.890625-27.113282 7.183594-36.003906-3.8125-8.890626-10.949219-7.226563-27.035156 3.722656-35.925782.03125-.027343.0625-.050781.09375-.078124zm-18.039063 79.652343c0-9.425781 7.640625-17.066406 17.066407-17.066406h34.132812c9.425781 0 17.066406 7.640625 17.066406 17.066406v34.132813h-68.265625zm0 0"/></svg>