<?xml version="1.0" encoding="utf-8"?>
<!-- Generator: Adobe Illustrator 24.0.2, SVG Export Plug-In . SVG Version: 6.00 Build 0)  -->
<svg version="1.1" id="Layer_1" xmlns="http://www.w3.org/2000/svg" xmlns:xlink="http://www.w3.org/1999/xlink" x="0px" y="0px"
	 viewBox="0 0 210.1 225" style="enable-background:new 0 0 210.1 225;" xml:space="preserve">
<style type="text/css">
	.st0{fill:#CCCCCC;}
</style>
<g>
	<path class="st0" d="M205.5,107.1l-7.1-0.9l4.4-5.7c1.6-2.1,1.4-5.1-0.4-7l-7.5-7.5c-1.9-1.9-4.9-2.1-7-0.4l-5.6,4.4l-0.9-7.1
		c-0.3-2.6-2.6-4.6-5.3-4.6h-10.6c-1.7,0-3.3,0.9-4.2,2.2l-4.7-7.8c1.2-1.8,1-4.2-0.3-5.9l-4.4-5.6l7.1-0.9c2.6-0.3,4.6-2.6,4.6-5.3
		V44.3c0-2.7-2-4.9-4.6-5.2l-7.1-0.9l4.4-5.7c1.6-2.1,1.4-5.1-0.4-7l-7.5-7.5c-1.9-1.9-4.9-2.1-7-0.4l-5.6,4.4l-0.9-7.1
		c-0.3-2.6-2.6-4.6-5.3-4.6h-10.6c-2.7,0-4.9,2-5.2,4.6l-0.9,7.1l-5.7-4.4c-2.1-1.6-5.1-1.4-7,0.4l-7.5,7.5c-1.9,1.9-2.1,4.9-0.4,7
		l4.4,5.6l-7.1,0.9c-2.6,0.3-4.6,2.6-4.6,5.3v2.9L52.7,60.1l-6-6c-2.6-2.6-6.6-2.8-9.5-0.6L22,65.3c-0.8-0.4-1.7-0.7-2.5-1
		l-2.4-19.1c-0.4-3.6-3.5-6.3-7.1-6.3H2.5l0,0l0,0v157.5l0,0l0,0h7.6c3.6,0,6.6-2.7,7.1-6.3l2.4-19.1c0.8-0.3,1.6-0.7,2.5-1
		l15.2,11.8c2.9,2.2,7,2,9.5-0.6l7.4-7.4L84.8,187v4c0,2.7,2,4.9,4.7,5.3l7.1,0.9l-4.4,5.6c-1.7,2.1-1.5,5.1,0.4,7l7.5,7.5
		c1.9,1.9,4.9,2.1,7,0.4l5.6-4.4l0.9,7.1c0.3,2.7,2.6,4.6,5.3,4.6h10.6c2.7,0,4.9-2,5.3-4.7l0.9-7.1l5.6,4.4c2.1,1.7,5.1,1.5,7-0.4
		l7.5-7.5c1.9-1.9,2.1-4.9,0.4-7l-4.4-5.6l7.1-0.9c2.7-0.3,4.6-2.6,4.6-5.3v-10.6c0-2.7-2-4.9-4.7-5.3l-7.1-0.9l4.4-5.6
		c1.3-1.7,1.5-4.1,0.3-6l4.7-7.8c1,1.4,2.5,2.2,4.2,2.2H176c2.7,0,4.9-2,5.2-4.6l0.9-7.1l5.7,4.4c2.1,1.6,5.1,1.4,7-0.4l7.5-7.5
		c1.9-1.9,2.1-4.9,0.4-7l-4.4-5.6l7.1-0.9c2.6-0.3,4.6-2.6,4.6-5.3v-10.6C210.1,109.7,208.1,107.4,205.5,107.1z M143.5,89.2
		L137,78.4l4.3,3.3c2.1,1.6,5.1,1.4,7-0.4l3.1-3.1l6.5,10.8l-4.3-3.3c-2.1-1.6-5.1-1.4-7,0.4L143.5,89.2z M92,46l8.5-1.1
		c1.4-0.2,2.5-1.1,2.9-2.4c0.3-0.9,0.7-1.7,1.1-2.6c0.6-1.2,0.4-2.7-0.4-3.8l-5.3-6.7l5.2-5.2l6.8,5.2c1.1,0.8,2.5,1,3.8,0.4
		c0.8-0.4,1.7-0.8,2.6-1.1c1.3-0.4,2.2-1.6,2.4-2.9l1.1-8.5h7.3l1.1,8.5c0.2,1.4,1.1,2.5,2.4,2.9c0.9,0.3,1.7,0.7,2.6,1.1
		c1.2,0.6,2.7,0.4,3.8-0.4l6.8-5.2l5.2,5.2l-5.3,6.7c-0.8,1.1-1,2.5-0.4,3.8c0.4,0.8,0.8,1.7,1.1,2.6c0.4,1.3,1.6,2.2,2.9,2.4
		l8.5,1.1v7.3l-8.5,1.1c-1.4,0.2-2.5,1.1-2.9,2.4c-0.3,0.9-0.7,1.7-1.1,2.6c-0.6,1.2-0.4,2.7,0.4,3.8l5.2,6.8l-5.2,5.2l-6.8-5.3
		c-1.1-0.8-2.5-1-3.8-0.4c-0.8,0.4-1.7,0.8-2.6,1.1c-1.3,0.4-2.2,1.6-2.4,2.9l-1.1,8.5h-7.3l-1.1-8.5c-0.2-1.4-1.1-2.5-2.4-2.9
		c-0.9-0.3-1.7-0.7-2.6-1.1c-1.2-0.6-2.7-0.4-3.8,0.4L104,75l-5.2-5.2l5.2-6.8c0.8-1.1,1-2.5,0.4-3.8c-0.4-0.8-0.8-1.7-1.1-2.6
		c-0.4-1.3-1.6-2.2-2.9-2.4L92,53.3V46z M2.5,87.7c13.5,2.6,23.2,14.4,23.2,28.1S16,141.4,2.5,144V87.7z M41.6,176.1L24.7,163
		c-1.1-0.8-2.5-1-3.8-0.4c-1.9,0.9-3.8,1.7-5.8,2.4c-1.3,0.4-2.2,1.6-2.4,3l-2.6,21.3H2.5v-38C20,148.6,33,133.6,33,115.9
		S20,83.1,2.5,80.5V46.1h7.6l2.6,21.3c0.2,1.4,1.1,2.5,2.4,3c2,0.7,3.9,1.5,5.8,2.4c1.2,0.6,2.7,0.4,3.8-0.4l16.9-13.2L57.4,75
		L44.3,91.9c-0.8,1.1-1,2.5-0.4,3.8c0.9,1.9,1.7,3.8,2.4,5.8c0.4,1.3,1.6,2.2,3,2.4l21.3,2.6v22.3l-21.3,2.6c-1.4,0.2-2.5,1.1-3,2.4
		c-0.7,2-1.5,3.9-2.4,5.8c-0.6,1.2-0.4,2.7,0.4,3.8l13.2,16.9L41.6,176.1z M63.1,156l-11.8-15.2c0.4-0.8,0.7-1.7,1-2.5l19.1-2.4
		c3.6-0.4,6.3-3.5,6.3-7.1v-22.3c0-3.6-2.7-6.6-6.3-7.1L52.3,97c-0.3-0.8-0.7-1.6-1-2.5l11.8-15.2c2.2-2.9,2-7-0.6-9.5l-4.3-4.3
		l26.6-10.7v0c0,2.7,2,4.9,4.6,5.2l7.1,0.9l-4.4,5.7c-1.6,2.1-1.4,5.1,0.4,7l7.5,7.5c1.9,1.9,4.9,2.1,7,0.4l5.6-4.4l0.9,7.1
		c0.3,2.6,2.6,4.6,5.3,4.6h10.6c1.7,0,3.3-0.9,4.2-2.2l4.7,7.8c-1.2,1.8-1,4.2,0.3,5.9l4.4,5.6l-7.1,0.9c-2.6,0.3-4.6,2.6-4.6,5.3
		V123c0,2.7,2,4.9,4.6,5.2l7.1,0.9l-4.4,5.7c-1.3,1.7-1.4,4.1-0.3,5.9l-4.7,7.8c-1-1.4-2.5-2.2-4.2-2.2h-10.6c-2.7,0-4.9,2-5.3,4.7
		l-0.9,7.1l-5.6-4.4c-2.1-1.7-5.1-1.5-7,0.4l-7.5,7.5c-1.9,1.9-2.1,4.9-0.4,7l4.4,5.6l-7.1,0.9c-2.2,0.3-4,2-4.4,4.2l-25.5-10.9
		l2.9-2.9C65.1,162.9,65.3,158.8,63.1,156L63.1,156z M148.3,154.1c-1.9-1.9-4.9-2.1-7-0.4l-4.3,3.3l6.5-10.8l3.1,3.1
		c1.9,1.9,4.9,2.1,7,0.4l4.3-3.3l-6.5,10.8L148.3,154.1z M156.4,182v7.3l-8.5,1c-1.4,0.2-2.6,1.2-3,2.5c-0.3,0.9-0.6,1.7-1,2.5
		c-0.6,1.2-0.4,2.7,0.4,3.7l5.2,6.7l-5.2,5.2l-6.7-5.2c-1.1-0.8-2.5-1-3.7-0.4c-0.8,0.4-1.6,0.7-2.5,1c-1.3,0.4-2.3,1.6-2.5,3
		l-1,8.5h-7.3l-1-8.5c-0.2-1.4-1.2-2.6-2.5-3c-0.9-0.3-1.7-0.6-2.5-1c-1.2-0.6-2.7-0.4-3.7,0.4L104,211l-5.2-5.2l5.2-6.7
		c0.8-1.1,1-2.5,0.4-3.7c-0.4-0.8-0.7-1.6-1-2.5c-0.4-1.3-1.6-2.3-3-2.5l-8.5-1V182l8.5-1c1.4-0.2,2.6-1.2,3-2.5
		c0.3-0.9,0.6-1.7,1-2.5c0.6-1.2,0.4-2.7-0.4-3.7l-5.2-6.7l5.2-5.2l6.7,5.2c1.1,0.8,2.5,1,3.7,0.4c0.8-0.4,1.6-0.7,2.5-1
		c1.3-0.4,2.3-1.6,2.5-3l1-8.5h7.3l1,8.5c0.2,1.4,1.2,2.6,2.5,3c0.9,0.3,1.7,0.6,2.5,1c1.2,0.6,2.7,0.4,3.7-0.4l6.7-5.2l5.2,5.2
		l-5.2,6.7c-0.8,1.1-1,2.5-0.4,3.7c0.4,0.8,0.7,1.6,1,2.5c0.4,1.3,1.6,2.3,3,2.5L156.4,182z M202.9,121.3l-8.5,1.1
		c-1.4,0.2-2.5,1.1-2.9,2.4c-0.3,0.9-0.7,1.7-1.1,2.6c-0.6,1.2-0.4,2.7,0.4,3.8l5.2,6.8l-5.2,5.2l-6.8-5.2c-1.1-0.8-2.5-1-3.8-0.4
		c-0.8,0.4-1.7,0.8-2.6,1.1c-1.3,0.4-2.2,1.6-2.4,2.9l-1.1,8.5h-7.3l-1.1-8.5c-0.2-1.4-1.1-2.5-2.4-2.9c-0.9-0.3-1.7-0.7-2.6-1.1
		c-1.2-0.6-2.7-0.4-3.8,0.4l-6.8,5.2l-5.2-5.2l5.2-6.8c0.8-1.1,1-2.5,0.4-3.8c-0.4-0.8-0.8-1.7-1.1-2.6c-0.4-1.3-1.6-2.2-2.9-2.4
		l-8.5-1.1V114l8.5-1.1c1.4-0.2,2.5-1.1,2.9-2.4c0.3-0.9,0.7-1.7,1.1-2.6c0.6-1.2,0.4-2.7-0.4-3.8l-5.2-6.8l5.2-5.2l6.8,5.2
		c1.1,0.8,2.5,1,3.8,0.4c0.8-0.4,1.7-0.8,2.6-1.1c1.3-0.4,2.2-1.6,2.4-2.9l1.1-8.5h7.3l1.1,8.5c0.2,1.4,1.1,2.5,2.4,2.9
		c0.9,0.3,1.7,0.7,2.6,1.1c1.2,0.6,2.7,0.5,3.8-0.4l6.8-5.2l5.2,5.2l-5.3,6.8c-0.9,1.1-1,2.5-0.4,3.8c0.4,0.8,0.8,1.7,1.1,2.6
		c0.4,1.3,1.6,2.2,2.9,2.4l8.5,1.1L202.9,121.3z"/>
	<path class="st0" d="M170.7,99.8c-9.9,0-17.9,8-17.9,17.9s8,17.9,17.9,17.9c9.9,0,17.9-8,17.9-17.9
		C188.6,107.8,180.6,99.8,170.7,99.8z M170.7,128.4c-5.9,0-10.7-4.8-10.7-10.7c0-5.9,4.8-10.7,10.7-10.7s10.7,4.8,10.7,10.7
		C181.5,123.6,176.7,128.4,170.7,128.4z"/>
	<path class="st0" d="M124.2,67.5c9.9,0,17.9-8,17.9-17.9s-8-17.9-17.9-17.9s-17.9,8-17.9,17.9C106.3,59.5,114.3,67.5,124.2,67.5z
		 M124.2,38.9c5.9,0,10.7,4.8,10.7,10.7s-4.8,10.7-10.7,10.7c-5.9,0-10.7-4.8-10.7-10.7S118.3,38.9,124.2,38.9z"/>
	<path class="st0" d="M124.2,167.8c-7.1,0-13.6,4.3-16.4,10.8c-2.8,6.6-1.5,14.2,3.5,19.4l0,0c5.6,5.9,14.5,7.3,21.7,3.3
		c7.1-4,10.7-12.3,8.6-20.1C139.5,173.2,132.4,167.7,124.2,167.8z M124.2,196.4c-2.9,0-5.7-1.2-7.7-3.3l-2.6,2.4l2.6-2.5
		c-1.9-2-3-4.6-3-7.4c0-5.9,4.8-10.7,10.7-10.7c5.9,0,10.7,4.8,10.7,10.7S130.1,196.4,124.2,196.4z"/>
</g>
</svg>
