<?xml version="1.0" encoding="utf-8"?>
<!-- Generator: Adobe Illustrator 24.2.0, SVG Export Plug-In . SVG Version: 6.00 Build 0)  -->
<svg version="1.1" id="Layer_1" xmlns="http://www.w3.org/2000/svg" xmlns:xlink="http://www.w3.org/1999/xlink" x="0px" y="0px"
	 viewBox="0 0 171.8 33.8" style="enable-background:new 0 0 171.8 33.8;" xml:space="preserve">
<style type="text/css">
	.st0{fill:#EA4924;}
</style>
<g>
	<g>
		<path class="st0" d="M42.7,13.4l-0.2,18.4h-7l0.1-17.7c0-3.4-1.4-4.5-4.9-4.5c-3.4,0-7.4,4.5-7.4,8.3l-0.2,13.8l-7.3,0.1V4l7,0.1
			l-0.1,3.5c2-2.8,6.6-4.3,10.5-4.3C39.4,3.2,42.7,6.7,42.7,13.4z"/>
	</g>
	<g>
		<path class="st0" d="M10.2,31.8H2.9L2.6,8.5C2.6,8,2.9,7.3,3.4,7l4.1-2.8c1.3-0.9,2.6-0.4,2.6,1.2l0,0L10.2,31.8L10.2,31.8z"/>
	</g>
	<g>
		<path class="st0" d="M46.2,17.4c0-8.7,6.8-14.8,16-14.8c4.3,0,8.2,1.3,11,3.6c0.5,0.4,0.5,1.3,0,1.7l-3.1,3.9
			c-0.4,0.3-0.6,0.5-2.2-0.4c-1.5-0.9-3.7-2.2-6.1-2.2c-4.9,0-7.9,3.2-7.9,7.8s2.7,7.8,7.7,7.8c2.4,0,4.9-0.6,6.3-1.8
			c0.4-0.3,1.5-1.5,2.1-1.1l3.7,3.7c0.5,0.4,0.6,1.1,0.1,1.5c-2.8,2.5-7.1,5-11.7,5C53,32.3,46.2,26.1,46.2,17.4z"/>
	</g>
	<g>
		<path class="st0" d="M91.5,25c2.7,0,5.8-1.5,8.2-3.3c0.4-0.2,0.9-0.2,1.2,0l3.4,3.2c0.4,0.4,0.4,1,0,1.4
			c-3.1,2.8-6.8,5.5-11.3,5.8c-9.4,0.7-17.4-5.8-17.4-15.2c0-8.8,6.2-15.2,15.5-15.2c9.5,0,14.4,6.8,14.4,13.7c0,1-0.2,2.8-0.4,4
			l-21.7,0.2C84.4,23.2,87.2,25,91.5,25z M83.8,13L98,13.2c-0.6-3.1-2.8-5.3-6.8-5.3C87.3,8,84.9,9.6,83.8,13z"/>
	</g>
	<g>
		<path class="st0" d="M135.9,16.9c0,9.3-6.4,15.1-14.8,15.1H112c-1.1,0-2-0.8-2-2V3.7c0-1.1,0.8-2,2-2h9.1
			C129.5,1.7,135.9,7.6,135.9,16.9z M128.1,17.2c0-5.6-3.6-8.8-9.2-8.8l-1.9,0.2v16.6l2.7-0.1C125.3,25.2,128.1,22.8,128.1,17.2z"/>
	</g>
	<g>
		<path class="st0" d="M138.6,16.6c0-8.9,6.4-15.1,15.2-15.1S169,7.7,169,16.6c0,8.8-6.4,15.1-15.2,15.1S138.6,25.4,138.6,16.6z
			 M161.3,16.8c0-4.7-2.7-8.8-7.5-8.8c-4.7,0-7.4,4.1-7.4,8.8s2.8,8.2,7.5,8.2C158.7,25,161.3,21.4,161.3,16.8z"/>
	</g>
</g>
</svg>
