<?xml version="1.0" encoding="utf-8"?>
<!-- Generator: Adobe Illustrator 24.0.2, SVG Export Plug-In . SVG Version: 6.00 Build 0)  -->
<svg version="1.1" id="Layer_1" xmlns="http://www.w3.org/2000/svg" xmlns:xlink="http://www.w3.org/1999/xlink" x="0px" y="0px"
	 viewBox="0 0 230.2 39.8" style="enable-background:new 0 0 230.2 39.8;" xml:space="preserve">
<style type="text/css">
	.st0{fill:#EA4924;}
	.st1{fill:#FFFFFF;}
</style>
<g>
	<g>
		<path class="st0" d="M39.5,16.5l-0.1,17.1h-6.5L33,17.1c0-3.2-1.2-4.1-4.6-4.1c-3.2,0-6.9,4.1-6.9,7.6l-0.3,12.8l-6.8,0.1V7.7
			L21,7.8L20.9,11c1.9-2.6,6.1-4,9.7-4C36.5,7,39.5,10.3,39.5,16.5z"/>
	</g>
	<g>
		<path class="st0" d="M9.4,33.5H2.6L2.4,11.9c0-0.5,0.3-1.1,0.8-1.4l3.7-2.7c1.2-0.9,2.4-0.4,2.4,1.1l0,0L9.4,33.5L9.4,33.5z"/>
	</g>
	<g>
		<path class="st0" d="M42.9,20c0-7.9,6.2-13.5,14.5-13.5c3.9,0,7.5,1.2,10,3.3c0.5,0.4,0.5,1.2,0,1.6l-2.8,3.6
			c-0.4,0.3-0.6,0.5-2-0.4c-1.3-0.8-3.4-2-5.5-2c-4.4,0-7.2,3-7.2,7.1s2.4,7.1,7,7.1c2.2,0,4.4-0.6,5.8-1.6c0.4-0.3,1.3-1.4,2-0.9
			l3.4,3.3c0.5,0.4,0.6,0.9,0.1,1.3c-2.6,2.3-6.5,4.6-10.7,4.6C49,33.5,42.9,27.9,42.9,20z"/>
	</g>
	<g>
		<path class="st0" d="M84.7,26.9c2.4,0,5.4-1.4,7.5-3c0.4-0.2,0.8-0.2,1.1,0l3.1,2.9c0.4,0.4,0.4,0.8,0,1.2
			c-2.8,2.6-6.2,5.1-10.3,5.4c-8.6,0.7-15.9-5.4-15.9-13.9c0-8.1,5.7-13.9,14.2-13.9c8.6,0,13.2,6.2,13.2,12.5
			c0,0.8-0.2,2.6-0.4,3.7l-19.8,0.2C78.2,25.2,80.7,26.9,84.7,26.9z M77.6,15.8l13,0.2c-0.6-2.8-2.5-4.8-6.2-4.8
			C80.8,11.3,78.5,12.8,77.6,15.8z"/>
	</g>
	<g>
		<path class="st0" d="M125.2,19.3c0,8.7-5.9,14.1-13.8,14.1H103c-1,0-1.8-0.8-1.8-1.8V7.1c0-1,0.8-1.8,1.8-1.8h8.4
			C119.3,5.3,125.2,10.8,125.2,19.3z M117.9,19.5c0-5.2-3.3-8.2-8.6-8.2l-1.7,0.2v15.5l2.5-0.1C115.3,27.1,117.9,24.8,117.9,19.5z"
			/>
	</g>
	<g>
		<path class="st0" d="M128.6,19.4c0-8.3,5.9-14,14.1-14c8.2,0,14.1,5.7,14.1,14c0,8.2-5.9,14-14.1,14
			C134.5,33.5,128.6,27.6,128.6,19.4z M149.7,19.6c0-4.4-2.5-8.1-7-8.1c-4.4,0-6.9,3.7-6.9,8.1s2.6,7.6,7,7.6
			C147.2,27.2,149.7,23.9,149.7,19.6z"/>
	</g>
</g>
<g>
	<path class="st1" d="M185.6,19.7c0,7.4-4.1,13.3-13.9,13.3h-7.4V6.2h7.4C181.5,6.2,185.6,12.3,185.6,19.7z M165.9,7.7v23.9h5.9
		c9.2,0,12.3-5.6,12.3-11.9c0-6.3-3.1-12-12.3-12H165.9z"/>
	<path class="st1" d="M196.7,33.6c-3.6,0-6.4-1.4-7.8-2.8l0.3-1.5c1.8,1.5,4.5,2.9,7.6,2.9c3.6,0,6.5-2.3,6.5-5.9
		c0-3.2-1.5-5.2-6.9-6.8c-4.3-1.2-6.7-3.8-6.7-7.4s3-6.5,7.6-6.5c2.3,0,4.7,1,6.1,2L203,9c-1.8-1.2-4-2-5.8-2c-3.8,0-6,2.1-6,5.1
		c0,2.5,1.2,4.6,5.8,6c4.9,1.4,7.8,3.8,7.8,8.1C204.8,31.1,200.6,33.6,196.7,33.6z"/>
	<path class="st1" d="M217.2,22h-6.3v11h-1.5V6.2h7.8c5.4,0,7.8,3.8,7.8,7.9C225,18.2,222.6,22,217.2,22z M210.9,20.6h6.3
		c4.7,0,6.3-3.3,6.3-6.5c0-3.1-1.6-6.5-6.3-6.5h-6.3V20.6z"/>
</g>
</svg>
