<?xml version="1.0" encoding="utf-8"?>
<!-- Generator: Adobe Illustrator 24.2.0, SVG Export Plug-In . SVG Version: 6.00 Build 0)  -->
<svg version="1.1" id="Layer_1" xmlns="http://www.w3.org/2000/svg" xmlns:xlink="http://www.w3.org/1999/xlink" x="0px" y="0px"
	 viewBox="0 0 158.6 60.4" style="enable-background:new 0 0 158.6 60.4;" xml:space="preserve">
<style type="text/css">
	.st0{fill:#EA4924;}
	.st1{enable-background:new    ;}
</style>
<g>
	<g>
		<g>
			<path class="st0" d="M39.7,13.3l-0.1,17.1h-6.5l0.1-16.5c0-3.2-1.2-4.1-4.6-4.1c-3.2,0-6.9,4.1-6.9,7.6l-0.3,12.8l-6.8,0.1V4.5
				l6.6,0.1l-0.1,3.2c1.9-2.6,6.1-4,9.7-4C36.7,3.8,39.7,7.1,39.7,13.3z"/>
		</g>
		<g>
			<path class="st0" d="M9.6,30.3H2.8L2.6,8.7c0-0.5,0.3-1.1,0.8-1.4l3.7-2.7c1.2-0.9,2.4-0.4,2.4,1.1l0,0L9.6,30.3L9.6,30.3z"/>
		</g>
		<g>
			<path class="st0" d="M43.1,16.8c0-7.9,6.2-13.5,14.5-13.5c3.9,0,7.5,1.2,10,3.3c0.5,0.4,0.5,1.2,0,1.6l-2.8,3.6
				c-0.4,0.3-0.6,0.5-2-0.4c-1.3-0.8-3.4-2-5.5-2c-4.4,0-7.2,3-7.2,7.1s2.4,7.1,7,7.1c2.2,0,4.4-0.6,5.8-1.6c0.4-0.3,1.3-1.4,2-0.9
				l3.4,3.3c0.5,0.4,0.6,0.9,0.1,1.3c-2.6,2.3-6.5,4.6-10.7,4.6C49.2,30.3,43.1,24.7,43.1,16.8z"/>
		</g>
		<g>
			<path class="st0" d="M84.9,23.7c2.4,0,5.4-1.4,7.5-3c0.4-0.2,0.8-0.2,1.1,0l3.1,2.9c0.4,0.4,0.4,0.8,0,1.2
				c-2.8,2.6-6.2,5.1-10.3,5.4c-8.6,0.7-15.9-5.4-15.9-13.9c0-8.1,5.7-13.9,14.2-13.9c8.6,0,13.2,6.2,13.2,12.5
				c0,0.8-0.2,2.6-0.4,3.7l-19.8,0.2C78.4,22,80.9,23.7,84.9,23.7z M77.8,12.6l13,0.2C90.2,10,88.3,8,84.6,8
				C81,8.1,78.7,9.6,77.8,12.6z"/>
		</g>
		<g>
			<path class="st0" d="M125.4,16.1c0,8.7-5.9,14.1-13.8,14.1h-8.4c-1,0-1.8-0.8-1.8-1.8V3.9c0-1,0.8-1.8,1.8-1.8h8.4
				C119.5,2.1,125.4,7.6,125.4,16.1z M118.1,16.3c0-5.2-3.3-8.2-8.6-8.2l-1.7,0.2v15.5l2.5-0.1C115.5,23.9,118.1,21.6,118.1,16.3z"
				/>
		</g>
		<g>
			<path class="st0" d="M128.8,16.2c0-8.3,5.9-14,14.1-14c8.2,0,14.1,5.7,14.1,14c0,8.2-5.9,14-14.1,14
				C134.7,30.3,128.8,24.4,128.8,16.2z M149.9,16.4c0-4.4-2.5-8.1-7-8.1c-4.4,0-6.9,3.7-6.9,8.1s2.6,7.6,7,7.6
				S149.9,20.7,149.9,16.4z"/>
		</g>
	</g>
	<g class="st1">
		<path d="M22.9,51.4V36.2h1v14.5h8v0.8L22.9,51.4L22.9,51.4z"/>
		<path d="M33.9,37.5v-1.4h0.9v1.4H33.9z M33.9,51.4v-11h0.9v11H33.9z"/>
		<path d="M43.6,56.6c-1.7,0-3.7-0.6-4.7-1.1v-0.8c1.1,0.6,3,1.2,4.8,1.2c2.3,0,5.2-1,5.2-5.3v-1.8c-0.8,1.9-2.9,3-5.1,3
			c-3.3,0-5.9-2.4-5.9-5.8s2.6-5.8,5.9-5.8c2.2,0,4.4,1.1,5.2,3.1v-2.8h0.8v10.1C49.8,55.6,46.3,56.6,43.6,56.6z M43.8,40.9
			c-2.8,0-5.1,1.9-5.1,5s2.3,5,5.1,5s5.1-1.9,5.1-5C48.9,42.8,46.6,40.9,43.8,40.9z"/>
		<path d="M62.7,51.4v-6.3c0-3.2-1.4-4.2-3.6-4.2c-2.2,0-4.7,1.9-4.7,4.1v6.4h-0.9V36.2h0.9V43c0.8-1.7,2.9-2.9,4.9-2.9
			c2.8,0,4.4,1.4,4.4,4.9v6.4H62.7z"/>
		<path d="M69.7,41.2v10.3h-0.9V41.2H66v-0.7h2.7v-3h0.9v3h2.7v0.7H69.7z"/>
		<path d="M84,51.4v-6.3c0-3.2-1.4-4.2-3.6-4.2s-4.7,1.9-4.7,4.1v6.4h-0.9V36.2h0.9V43c0.8-1.7,2.9-2.9,4.9-2.9
			c2.8,0,4.4,1.4,4.4,4.9v6.4H84z"/>
		<path d="M94,51.8c-3.5,0-6.2-2.5-6.2-5.8s2.7-5.8,6.2-5.8s6.2,2.5,6.2,5.8S97.5,51.8,94,51.8z M94,40.9c-3,0-5.3,2.1-5.3,5.1
			s2.3,5.1,5.3,5.1s5.3-2.1,5.3-5.1C99.3,42.9,97,40.9,94,40.9z"/>
		<path d="M104,40.4v6.3c0,3.2,1.4,4.2,3.6,4.2s4.7-1.9,4.7-4.1v-6.4h0.9v11h-0.8v-2.7c-0.8,1.8-3,3-5,3c-2.8,0-4.4-1.4-4.4-4.9
			v-6.4C103,40.4,104,40.4,104,40.4z"/>
		<path d="M120,51.8c-1.8,0-3.3-0.6-3.9-1l0.2-0.7c0.9,0.5,2.4,0.9,3.8,0.9c1.9,0,3.3-0.7,3.3-2.4c0-1.3-1.1-1.8-3.5-2.4
			c-2.2-0.6-3.4-1.6-3.4-3.1c0-1.7,1.4-2.9,3.9-2.9c1.3,0,2.6,0.5,3.2,0.8l-0.2,0.7c-0.8-0.4-2-0.7-3-0.7c-2.1,0-3,0.9-3,2.1
			c0,1.3,1.1,1.9,3,2.4c2.4,0.6,4,1.6,4,3.1C124.3,50.7,122.4,51.8,120,51.8z"/>
		<path d="M136.8,44.2c0,0.2,0,0.7-0.1,1h-9.3c-0.3,3,1.3,5.8,5.5,5.8c1.5,0,3-0.6,3.9-1.3v0.8c-1,0.7-2.5,1.2-4.4,1.2
			c-3.5,0-5.9-2.4-5.9-5.9c0-3.7,2.9-5.7,5.5-5.7S136.8,41.8,136.8,44.2z M132,40.8c-2,0-4,1.1-4.6,3.7h8.4c0,0,0-0.4,0-0.5
			C135.9,42.3,134.3,40.8,132,40.8z"/>
	</g>
</g>
</svg>
